####
#
# OBJ File Generated by Meshlab
#
####
# Object TrackerSupport2_CH.obj
#
# Vertices: 742
# Faces: 1488
#
####
vn 0.1297109 -3.1362281 -3.0589221
v 104.5000000 53.1974792 0.0000000
vn 0.1297109 -3.1362281 3.0589221
v 104.5000000 53.1974792 3.0000000
vn 0.1244361 -3.1366563 -3.2208943
v 93.1741409 53.1974792 0.0000000
vn 0.1244361 -3.1366563 3.2208943
v 93.1741409 53.1974792 3.0000000
vn 3.1109056 0.4199564 3.2209055
v 73.4755630 29.7382660 3.0000000
vn 3.1113970 0.4146814 3.0589151
v 77.4619370 7.0377626 3.0000000
vn 1.5471228 0.2716860 0.0000000
v 73.4755630 29.7382660 0.0000000
vn 1.5471226 0.2716860 0.0000000
v 77.4619370 7.0377626 0.0000000
vn -0.1297165 3.1362276 -3.0589185
v 6.0000010 65.1974792 0.0000000
vn -0.1297165 3.1362271 3.0589185
v 6.0000010 65.1974792 3.0000000
vn 0.0000000 3.1415925 -3.1415927
v 29.9251232 65.1974792 0.0000000
vn 0.0000000 3.1415927 3.1415930
v 29.9251232 65.1974792 3.0000000
vn -0.1368489 3.1356201 -3.2288213
v 40.1786842 65.1974792 0.0000000
vn -0.1368489 3.1356204 3.2288241
v 40.1786842 65.1974792 3.0000000
vn -3.1120317 -0.4075532 3.2288251
v 52.4902916 79.8594894 3.0000000
vn -3.1113963 -0.4146832 3.0589180
v 52.1155396 81.9935150 3.0000000
vn -1.5471222 -0.2716871 0.0000000
v 52.4902916 79.8594894 0.0000000
vn -1.5471222 -0.2716871 0.0000000
v 52.1155396 81.9935150 0.0000000
vn 0.1217845 3.1368644 -3.2192011
v 84.0425568 65.1974792 0.0000000
vn 0.1217845 3.1368644 3.2192013
v 84.0425568 65.1974792 3.0000000
vn 0.0000000 3.1415925 -3.1415927
v 88.0261841 65.1974792 0.0000000
vn 0.0000000 3.1415927 3.1415927
v 88.0261841 65.1974792 3.0000000
vn 0.1297169 3.1362276 -3.0589182
v 104.5000000 65.1974792 0.0000000
vn 0.1297169 3.1362276 3.0589180
v 104.5000000 65.1974792 3.0000000
vn -0.5153225 3.0881619 -2.9762475
v 5.0124340 65.1156464 0.0000000
vn -0.5153224 3.0881619 2.9762475
v 5.0124340 65.1156464 3.0000000
vn -1.0165910 2.9612226 -2.9762423
v 4.0518045 64.8723831 0.0000000
vn -1.0165911 2.9612229 2.9762423
v 4.0518045 64.8723831 3.0000000
vn -1.4901292 2.7535100 -2.9762480
v 3.1443164 64.4743195 0.0000000
vn -1.4901291 2.7535100 2.9762480
v 3.1443164 64.4743195 3.0000000
vn -1.9230111 2.4706945 -2.9762497
v 2.3147240 63.9323196 0.0000000
vn -1.9230112 2.4706945 2.9762497
v 2.3147240 63.9323196 3.0000000
vn -2.3034487 2.1204762 -2.9762392
v 1.5856550 63.2611694 0.0000000
vn -2.3034484 2.1204762 2.9762392
v 1.5856550 63.2611694 3.0000000
vn -2.6210566 1.7124150 -2.9762473
v 0.9770021 62.4791679 0.0000000
vn -2.6210566 1.7124150 2.9762473
v 0.9770021 62.4791679 3.0000000
vn -2.8671598 1.2576559 -2.9762492
v 0.5053617 61.6076508 0.0000000
vn -2.8671596 1.2576557 2.9762492
v 0.5053617 61.6076508 3.0000000
vn -3.0350575 0.7685839 -2.9762421
v 0.1835972 60.6703911 0.0000000
vn -3.0350580 0.7685840 2.9762421
v 0.1835972 60.6703911 3.0000000
vn -3.1201694 0.2585433 -2.9762466
v 0.0204928 59.6929550 0.0000000
vn -3.1201692 0.2585433 2.9762466
v 0.0204928 59.6929550 3.0000000
vn -3.1201694 -0.2585423 -2.9762473
v 0.0204928 58.7020035 0.0000000
vn -3.1201696 -0.2585423 2.9762473
v 0.0204928 58.7020035 3.0000000
vn -3.0350580 -0.7685830 -2.9762414
v 0.1835972 57.7245636 0.0000000
vn -3.0350578 -0.7685829 2.9762414
v 0.1835972 57.7245636 3.0000000
vn -2.8671582 -1.2576582 -2.9762473
v 0.5053617 56.7873039 0.0000000
vn -2.8671582 -1.2576582 2.9762473
v 0.5053617 56.7873039 3.0000000
vn -2.6210549 -1.7124175 -2.9762492
v 0.9770021 55.9157906 0.0000000
vn -2.6210551 -1.7124175 2.9762492
v 0.9770021 55.9157906 3.0000000
vn -2.3034518 -2.1204731 -2.9762421
v 1.5856550 55.1337891 0.0000000
vn -2.3034518 -2.1204731 2.9762421
v 1.5856550 55.1337891 3.0000000
vn -1.9230144 -2.4706914 -2.9762468
v 2.3147240 54.4626350 0.0000000
vn -1.9230144 -2.4706914 2.9762468
v 2.3147240 54.4626350 3.0000000
vn -1.4901240 -2.7535124 -2.9762444
v 3.1443164 53.9206352 0.0000000
vn -1.4901240 -2.7535124 2.9762444
v 3.1443164 53.9206352 3.0000000
vn -1.0165915 -2.9612236 -2.9762495
v 4.0518045 53.5225754 0.0000000
vn -1.0165915 -2.9612236 2.9762495
v 4.0518045 53.5225754 3.0000000
vn -0.5153221 -3.0881610 -2.9762402
v 5.0124340 53.2793083 0.0000000
vn -0.5153221 -3.0881610 2.9762402
v 5.0124340 53.2793083 3.0000000
vn -0.1297105 -3.1362276 -3.0589223
v 6.0000010 53.1974792 0.0000000
vn -0.1297105 -3.1362281 3.0589218
v 6.0000010 53.1974792 3.0000000
vn -0.1217863 -3.1368647 -3.2192020
v 40.3784409 53.1974792 0.0000000
vn -0.1217863 -3.1368644 3.2192020
v 40.3784409 53.1974792 3.0000000
vn 0.0000000 -3.1415925 -3.1415930
v 29.9251232 53.1974792 0.0000000
vn 0.0000000 -3.1415923 3.1415927
v 29.9251232 53.1974792 3.0000000
vn 0.5153214 -3.0881615 -2.9762409
v 105.4875641 53.2793083 0.0000000
vn 0.5153215 -3.0881615 2.9762409
v 105.4875641 53.2793083 3.0000000
vn 1.0165918 -2.9612234 -2.9762483
v 106.4481964 53.5225754 0.0000000
vn 1.0165915 -2.9612231 2.9762483
v 106.4481964 53.5225754 3.0000000
vn 1.4901216 -2.7535141 -2.9762475
v 107.3556824 53.9206352 0.0000000
vn 1.4901216 -2.7535138 2.9762475
v 107.3556824 53.9206352 3.0000000
vn 1.9230139 -2.4706907 -2.9762418
v 108.1852798 54.4626350 0.0000000
vn 1.9230142 -2.4706910 2.9762418
v 108.1852798 54.4626350 3.0000000
vn 2.3034573 -2.1204677 -2.9762430
v 108.9143448 55.1337891 0.0000000
vn 2.3034573 -2.1204679 2.9762430
v 108.9143448 55.1337891 3.0000000
vn 2.6210566 -1.7124163 -2.9762540
v 109.5229950 55.9157906 0.0000000
vn 2.6210566 -1.7124164 2.9762542
v 109.5229950 55.9157906 3.0000000
vn 2.8671553 -1.2576673 -2.9762506
v 109.9946365 56.7873039 0.0000000
vn 2.8671551 -1.2576672 2.9762511
v 109.9946365 56.7873039 3.0000000
vn 3.0350564 -0.7685856 -2.9762330
v 110.3164062 57.7245636 0.0000000
vn 3.0350564 -0.7685856 2.9762330
v 110.3164062 57.7245636 3.0000000
vn 3.1201701 -0.2585374 -2.9762506
v 110.4795074 58.7020035 0.0000000
vn 3.1201701 -0.2585374 2.9762521
v 110.4795074 58.7020035 3.0000000
vn 3.1201701 0.2585384 -2.9762511
v 110.4795074 59.6929550 0.0000000
vn 3.1201701 0.2585384 2.9762549
v 110.4795074 59.6929550 3.0000000
vn 3.0350564 0.7685866 -2.9762344
v 110.3164062 60.6703911 0.0000000
vn 3.0350564 0.7685866 2.9762337
v 110.3164062 60.6703911 3.0000000
vn 2.8671565 1.2576647 -2.9762528
v 109.9946365 61.6076508 0.0000000
vn 2.8671565 1.2576646 2.9762526
v 109.9946365 61.6076508 3.0000000
vn 2.6210575 1.7124135 -2.9762516
v 109.5229950 62.4791679 0.0000000
vn 2.6210580 1.7124138 2.9762518
v 109.5229950 62.4791679 3.0000000
vn 2.3034539 2.1204708 -2.9762397
v 108.9143448 63.2611694 0.0000000
vn 2.3034539 2.1204708 2.9762397
v 108.9143448 63.2611694 3.0000000
vn 1.9230108 2.4706941 -2.9762440
v 108.1852798 63.9323196 0.0000000
vn 1.9230107 2.4706938 2.9762440
v 108.1852798 63.9323196 3.0000000
vn 1.4901266 2.7535117 -2.9762521
v 107.3556824 64.4743195 0.0000000
vn 1.4901267 2.7535117 2.9762521
v 107.3556824 64.4743195 3.0000000
vn 1.0165911 2.9612222 -2.9762406
v 106.4481964 64.8723831 0.0000000
vn 1.0165912 2.9612226 2.9762406
v 106.4481964 64.8723831 3.0000000
vn 0.5153219 3.0881624 -2.9762485
v 105.4875641 65.1156464 0.0000000
vn 0.5153218 3.0881622 2.9762485
v 105.4875641 65.1156464 3.0000000
vn 2.5934801 1.7528527 3.3114018
v 69.6279907 53.3575172 3.0000000
vn 2.8523874 1.2893912 3.3113792
v 69.5039139 53.5796280 3.0000000
vn 0.0000000 0.0000000 6.2831697
v 69.5615616 30.2487392 3.0000000
vn -0.3975978 3.1049206 3.3114159
v 71.7809982 4.2145772 3.0000000
vn 0.1328692 3.1274540 3.3114097
v 71.4759674 4.2016211 3.0000000
vn 0.0000000 0.0000000 6.2831879
v 69.5615616 2.0999982 3.0000000
vn -2.5934606 -1.7528818 3.3113961
v 73.0436783 7.0079527 3.0000000
vn -2.8523917 -1.2893691 3.3114212
v 73.1925735 6.7414231 3.0000000
vn -0.9166191 2.9930639 3.3114052
v 72.0794449 4.2788982 3.0000000
vn 2.1399488 -2.2853708 2.9762416
v 75.6533737 1.6203076 3.0000000
vn -1.4092646 2.7951019 3.3114119
v 72.3627319 4.3927321 3.0000000
vn -1.8613770 2.5167232 3.3114123
v 72.6227036 4.5528040 3.0000000
vn 1.6412343 2.6655138 3.3114181
v 70.6086121 4.4672451 3.0000000
vn 2.0681028 2.3498039 3.3113990
v 70.3631516 4.6487899 3.0000000
vn 2.4354477 1.9665277 3.3113902
v 70.1519012 4.8692040 3.0000000
vn 2.7327709 1.5266138 3.3114491
v 69.9809341 5.1221476 3.0000000
vn 2.9514723 1.0428174 3.3113682
v 69.8551865 5.4003487 3.0000000
vn -2.2599318 -2.1659489 3.3114069
v 72.8518829 7.2454886 3.0000000
vn -1.8613772 -2.5167232 3.3114100
v 72.6227036 7.4471941 3.0000000
vn -3.0292711 -0.7887606 3.3113999
v 73.2942810 6.4535589 3.0000000
vn -3.1175814 -0.3321450 3.2689543
v 73.3458786 6.1526484 3.0000000
vn 3.1307497 0.0265698 2.9762480
v 77.5521469 6.0509257 3.0000000
vn -3.1387606 -0.0000017 3.2267275
v 73.3523636 6.0000010 3.0000000
vn 3.0924249 -0.4890913 2.9762516
v 77.4786987 5.0626993 3.0000000
vn -3.1175816 0.3321438 3.2689557
v 73.3458786 5.8473496 3.0000000
vn 2.9697471 -0.9914134 2.9762433
v 77.2435989 4.1000395 3.0000000
vn -3.0292695 0.7887664 3.3114035
v 73.2942810 5.5464396 3.0000000
vn 2.7660580 -1.4667032 2.9762425
v 76.8532562 3.1892061 3.0000000
vn -2.8523948 1.2893662 3.3114119
v 73.1925735 5.2585788 3.0000000
vn 2.4869204 -1.9019802 2.9762478
v 76.3183136 2.3550429 3.0000000
vn -2.5934644 1.7528746 3.3114026
v 73.0436783 4.9920454 3.0000000
vn -2.2599320 2.1659486 3.3114047
v 72.8518829 4.7545099 3.0000000
vn 0.6594876 3.0600176 3.3113985
v 71.1731415 4.2404013 3.0000000
vn 1.1671352 2.9045501 3.3114109
v 70.8812180 4.3298006 3.0000000
vn 3.0852437 0.5290222 3.3114433
v 69.7782516 5.6957974 3.0000000
vn 3.1302795 -0.0000017 3.3113766
v 69.7523651 6.0000010 3.0000000
vn -0.3976002 -3.1049209 3.3114142
v 71.7809982 7.7854209 3.0000000
vn -0.9166172 -2.9930654 3.3114038
v 72.0794449 7.7210999 3.0000000
vn -1.4092638 -2.7951012 3.3114145
v 72.3627319 7.6072664 3.0000000
vn 3.0852439 -0.5290232 3.3114424
v 69.7782516 6.3042006 3.0000000
vn 2.9514716 -1.0428176 3.3113692
v 69.8551865 6.5996499 3.0000000
vn 2.7327709 -1.5266151 3.3114486
v 69.9809341 6.8778505 3.0000000
vn 2.4354489 -1.9665265 3.3113890
v 70.1519012 7.1307940 3.0000000
vn 2.0681024 -2.3498039 3.3114016
v 70.3631516 7.3512087 3.0000000
vn 1.6412327 -2.6655149 3.3114171
v 70.6086121 7.5327530 3.0000000
vn 1.1671376 -2.9045501 3.3114095
v 70.8812180 7.6701975 3.0000000
vn 0.6594899 -3.0600171 3.3114002
v 71.1731415 7.7595973 3.0000000
vn 0.1328668 -3.1274538 3.3114109
v 71.4759674 7.7983775 3.0000000
vn 0.7943121 -3.0284262 2.9762409
v 73.0745926 0.1963079 3.0000000
vn 1.2819479 -2.8563807 2.9762464
v 74.0090866 0.5260147 3.0000000
vn 1.7346053 -2.6064241 2.9762478
v 74.8765640 1.0050349 3.0000000
vn -0.7427898 -3.0414734 2.9762411
v 70.1288681 0.1713037 3.0000000
vn -0.2320459 -3.1222520 2.9762480
v 71.1076584 0.0165030 3.0000000
vn 0.2850148 -3.1178632 2.9762497
v 72.0985718 0.0249147 3.0000000
vn -2.4542830 -1.9439129 2.9762452
v 66.8489685 2.2746661 3.0000000
vn -2.1008482 -2.3213649 2.9762430
v 67.5262833 1.5513227 3.0000000
vn -1.6901097 -2.6354942 2.9762468
v 68.3134232 0.9493269 3.0000000
vn -1.2332742 -2.8777313 2.9762468
v 69.1889114 0.4850999 3.0000000
vn -3.0665269 -0.6701971 3.0589235
v 65.6427917 4.9622355 3.0000000
vn -2.9524884 -1.0416842 2.9762378
v 65.8941956 4.0037074 3.0000000
vn -2.7407641 -1.5134451 2.9762506
v 66.2999496 3.0996277 3.0000000
vn 0.0000000 0.0000000 6.2831860
v 64.5979309 56.5474777 3.0000000
vn 0.0000000 0.0000000 6.2831860
v 55.6376801 56.5474777 3.0000000
vn -2.5132298 -1.8692124 3.2968094
v 56.4264603 45.1331825 3.0000000
vn -2.7719870 -1.4582062 3.2968118
v 58.0787354 42.5087395 3.0000000
vn -2.9640939 -1.0121396 3.2968094
v 59.3054161 39.6604118 3.0000000
vn 0.0000000 0.0000000 6.2831855
v 64.5979309 30.2487392 3.0000000
vn -3.0685236 -0.6625052 3.2192023
v 60.0770149 36.6566925 3.0000000
vn 0.0000000 0.0000000 6.2831564
v 29.9251232 56.5474777 3.0000000
vn -0.4842139 -3.0944815 3.2968094
v 43.4703484 52.9570351 3.0000000
vn -0.9567849 -2.9824219 3.2968113
v 46.4879150 52.2414894 3.0000000
vn -1.4063528 -2.7986515 3.2968111
v 49.3585815 51.0680428 3.0000000
vn -1.8221025 -2.5475914 3.2968087
v 52.0133286 49.4649086 3.0000000
vn -2.1940427 -2.2352750 3.2968123
v 54.3883247 47.4706421 3.0000000
vn 0.0000000 0.0000000 6.2831988
v 2.1000021 56.5474777 3.0000000
vn 0.0000000 0.0000000 6.2831926
v 2.1000021 61.8474770 3.0000000
vn -1.6412170 -2.6655283 3.3113995
v 54.3367081 65.4747696 3.0000000
vn -2.0680842 -2.3498173 3.3114164
v 54.5412598 65.3234863 3.0000000
vn -2.3967471 2.0125353 3.3160539
v 49.7514305 69.6592941 3.0000000
vn -2.7096980 1.5659597 3.3160586
v 51.0013809 71.4429474 3.0000000
vn -2.4354720 1.9664965 3.3113918
v 54.7173004 63.2551498 3.0000000
vn -2.0680962 2.3498058 3.3114266
v 54.5412598 63.0714684 3.0000000
vn 0.0000000 0.0000000 6.2831888
v 55.6376801 61.8474770 3.0000000
vn -3.1296468 0.0019679 3.3160565
v 52.6786804 77.6896210 3.0000000
vn -3.0817971 0.5451800 3.3160548
v 52.4875641 75.5200043 3.0000000
vn 0.0000000 0.0000000 6.2832127
v 55.6376801 73.4643784 3.0000000
vn -2.9403832 1.0718391 3.3160558
v 51.9227486 73.4164886 3.0000000
vn -1.0699899 2.9410567 3.3159087
v 44.4522934 65.9507217 3.0000000
vn 1.8613648 2.5167313 3.3114142
v 52.6582947 62.9914818 3.0000000
vn -1.5642581 2.7106805 3.3160663
v 46.4264145 66.8708496 3.0000000
vn 2.2599368 2.1659408 3.3114109
v 52.4673119 63.1595688 3.0000000
vn -2.0110321 2.3980083 3.3160322
v 48.2108536 68.1196823 3.0000000
vn 2.5934649 1.7528807 3.3113828
v 52.3074837 63.3575172 3.0000000
vn 2.8523898 1.2893702 3.3114333
v 52.1834030 63.5796242 3.0000000
vn -2.4354613 -1.9665084 3.3114018
v 54.7173004 65.1398087 3.0000000
vn -2.7327740 -1.5266151 3.3114231
v 54.8597679 64.9290237 3.0000000
vn -2.9514682 -1.0428207 3.3113923
v 54.9645615 64.6971893 3.0000000
vn -3.0852466 -0.5290302 3.3114176
v 55.0286713 64.4509811 3.0000000
vn 2.8523870 -1.2893775 3.3114281
v 52.1834030 64.8153305 3.0000000
vn 3.0292709 -0.7887636 3.3113976
v 52.0986481 64.5754471 3.0000000
vn 3.1189961 -0.2654757 3.3114147
v 52.0556488 64.3246841 3.0000000
vn -3.1302762 -0.0000001 3.3114066
v 55.0502472 64.1974792 3.0000000
vn -3.0852466 0.5290301 3.3114178
v 55.0286713 63.9439774 3.0000000
vn 3.0292728 0.7887641 3.3113873
v 52.0986481 63.8195114 3.0000000
vn 3.1189947 0.2654835 3.3114200
v 52.0556488 64.0702667 3.0000000
vn -2.9514685 1.0428207 3.3113923
v 54.9645615 63.6977692 3.0000000
vn -2.7327752 1.5266157 3.3114221
v 54.8597679 63.4659348 3.0000000
vn -1.6412165 2.6655273 3.3114009
v 54.3367081 62.9201851 3.0000000
vn -1.1671515 2.9045463 3.3114035
v 54.1095314 62.8056450 3.0000000
vn -0.6594836 3.0600157 3.3114188
v 53.8662643 62.7311440 3.0000000
vn 1.4092689 -2.7951009 3.3113978
v 52.8749390 65.5368652 3.0000000
vn 0.9166042 -2.9930654 3.3114314
v 53.1110115 65.6317291 3.0000000
vn 0.3976110 -3.1049247 3.3113720
v 53.3597183 65.6853256 3.0000000
vn -0.1328342 -3.1274519 3.3114395
v 53.6139069 65.6961288 3.0000000
vn -0.6595067 -3.0600133 3.3114038
v 53.8662643 65.6638107 3.0000000
vn -1.1671512 -2.9045458 3.3114038
v 54.1095314 65.5893097 3.0000000
vn -0.1328347 3.1274562 3.3114095
v 53.6139069 62.6988297 3.0000000
vn 0.3976100 3.1049218 3.3114021
v 53.3597183 62.7096291 3.0000000
vn 0.9166062 2.9930682 3.3113997
v 53.1110115 62.7632294 3.0000000
vn 2.5934734 -1.7528688 3.3113720
v 52.3074837 65.0374374 3.0000000
vn 2.2599328 -2.1659410 3.3114386
v 52.4673119 65.2353897 3.0000000
vn 1.8613517 -2.5167432 3.3114028
v 52.6582947 65.4034729 3.0000000
vn 0.0000000 0.0000000 6.2831697
v 29.9251232 61.8474770 3.0000000
vn -0.5432404 3.0821397 3.3160560
v 42.3484230 65.3872299 3.0000000
vn 1.4092491 2.7951102 3.3114130
v 52.8749390 62.8580894 3.0000000
vn -1.2819496 2.8563790 2.9762430
v 55.5683899 88.5052643 3.0000000
vn -1.7346061 2.6064246 2.9762552
v 54.7009087 88.0262375 3.0000000
vn -2.1399484 2.2853696 2.9762378
v 53.9241028 87.4109726 3.0000000
vn -2.7660575 1.4667053 2.9762471
v 52.7242241 85.8420715 3.0000000
vn -2.9697456 0.9914168 2.9762414
v 52.3338776 84.9312363 3.0000000
vn -3.0924253 0.4890905 2.9762502
v 52.0987778 83.9685745 3.0000000
vn -2.4869261 1.9019737 2.9762509
v 53.2591629 86.6762314 3.0000000
vn -3.1307497 -0.0265707 2.9762452
v 52.0253296 82.9803467 3.0000000
vn -2.2599182 2.1659620 3.3114090
v 59.3246346 81.7857895 3.0000000
vn -1.8613688 2.5167303 3.3114028
v 59.0954514 81.5840836 3.0000000
vn 0.0000000 0.0000000 6.2831869
v 64.5979309 73.4643784 3.0000000
vn 1.6412427 2.6655121 3.3113956
v 57.0813599 81.4985275 3.0000000
vn 2.0680895 2.3498151 3.3114057
v 56.8358994 81.6800690 3.0000000
vn 0.1328340 3.1274524 3.3114290
v 57.9487190 81.2328949 3.0000000
vn 0.6594995 3.0600133 3.3114100
v 57.6458893 81.2716751 3.0000000
vn 1.1671693 2.9045358 3.3114152
v 57.3539696 81.3610764 3.0000000
vn 2.4354568 1.9665134 3.3114052
v 56.6246490 81.9004822 3.0000000
vn 2.7327724 1.5266186 3.3114209
v 56.4536858 82.1534271 3.0000000
vn 2.9514670 1.0428214 3.3113954
v 56.3279343 82.4316254 3.0000000
vn 3.0852470 0.5290258 3.3114183
v 56.2510033 82.7270737 3.0000000
vn 3.1302762 0.0000033 3.3114009
v 56.2251129 83.0312729 3.0000000
vn 3.0852470 -0.5290224 3.3114202
v 56.2510033 83.3354797 3.0000000
vn 2.9514675 -1.0428214 3.3113954
v 56.3279343 83.6309280 3.0000000
vn -2.5934596 1.7528803 3.3114066
v 59.5164299 82.0233231 3.0000000
vn 2.7327728 -1.5266190 3.3114209
v 56.4536858 83.9091263 3.0000000
vn 2.4354565 -1.9665130 3.3114052
v 56.6246490 84.1620712 3.0000000
vn 2.0680895 -2.3498151 3.3114059
v 56.8358994 84.3824844 3.0000000
vn 3.0685236 0.6625055 3.2192061
v 64.3439865 81.7382660 3.0000000
vn 3.0665259 0.6702011 3.0589216
v 63.9346848 84.0690384 3.0000000
vn -3.1387644 0.0000033 3.2266753
v 59.8251114 83.0312729 3.0000000
vn -2.8523917 1.2893734 3.3114080
v 59.6653252 82.2898560 3.0000000
vn 2.9640932 1.0121405 3.2968092
v 65.1155853 78.7345428 3.0000000
vn -3.0292671 0.7887717 3.3114078
v 59.7670326 82.5777130 3.0000000
vn -3.1175833 0.3321049 3.2689800
v 59.8186302 82.8786240 3.0000000
vn -1.4092853 2.7950931 3.3113999
v 58.8354797 81.4240112 3.0000000
vn -0.9166123 2.9930620 3.3114352
v 58.5521927 81.3101730 3.0000000
vn -0.3976047 3.1049252 3.3113780
v 58.2537460 81.2458572 3.0000000
vn 1.6412430 -2.6655123 3.3113956
v 57.0813599 84.5640259 3.0000000
vn 1.1671693 -2.9045362 3.3114154
v 57.3539696 84.7014771 3.0000000
vn -0.7943115 3.0284269 2.9762449
v 56.5028839 88.8349686 3.0000000
vn 0.6594608 -3.0600176 3.3114347
v 57.6458893 84.7908783 3.0000000
vn -0.2850111 3.1178625 2.9762459
v 57.4789009 89.0063629 3.0000000
vn 0.1328346 -3.1274590 3.3113794
v 57.9487190 84.8296509 3.0000000
vn 0.2320529 3.1222520 2.9762523
v 58.4698181 89.0147705 3.0000000
vn -0.3975655 -3.1049261 3.3114035
v 58.2537460 84.8166962 3.0000000
vn 0.7427915 3.0414727 2.9762406
v 59.4486046 88.8599701 3.0000000
vn -0.9166126 -2.9930627 3.3114352
v 58.5521927 84.7523804 3.0000000
vn 1.2332739 2.8777313 2.9762490
v 60.3885612 88.5461731 3.0000000
vn -1.4092849 -2.7950926 3.3113999
v 58.8354797 84.6385422 3.0000000
vn 1.6901097 2.6354938 2.9762435
v 61.2640495 88.0819473 3.0000000
vn -1.8613689 -2.5167308 3.3114028
v 59.0954514 84.4784698 3.0000000
vn 2.1008494 2.3213642 2.9762449
v 62.0511894 87.4799500 3.0000000
vn -2.2599182 -2.1659617 3.3114092
v 59.3246346 84.2767639 3.0000000
vn 2.4542780 1.9439192 2.9762492
v 62.7285042 86.7566071 3.0000000
vn -2.5934601 -1.7528807 3.3114061
v 59.5164299 84.0392303 3.0000000
vn 2.7407613 1.5134488 2.9762449
v 63.2775269 85.9316483 3.0000000
vn -2.8523955 -1.2893608 3.3114166
v 59.6653252 83.7726974 3.0000000
vn 2.9524889 1.0416847 2.9762416
v 63.6832771 85.0275726 3.0000000
vn -3.0292706 -0.7887659 3.3113956
v 59.7670326 83.4848328 3.0000000
vn -3.1175826 -0.3321081 3.2689862
v 59.8186302 83.1839294 3.0000000
vn 2.7719882 1.4582052 3.2968087
v 66.3422699 75.8862152 3.0000000
vn 2.5132298 1.8692117 3.2968135
v 67.9945374 73.2617722 3.0000000
vn 0.0000000 0.0000000 6.2831855
v 64.5979309 61.8474770 3.0000000
vn 0.0000000 0.0000000 6.2831864
v 69.5615616 61.8474770 3.0000000
vn 2.1940427 2.2352753 3.2968092
v 70.0326767 70.9243164 3.0000000
vn 0.4842117 3.0944819 3.2968106
v 80.9506531 65.4379196 3.0000000
vn 0.9567845 2.9824221 3.2968116
v 77.9330826 66.1534653 3.0000000
vn 0.0000000 0.0000000 6.2831969
v 88.0261841 61.8474770 3.0000000
vn 1.4063528 2.7986515 3.2968111
v 75.0624161 67.3269119 3.0000000
vn 1.8221047 2.5475898 3.2968104
v 72.4076691 68.9300461 3.0000000
vn 1.6412317 -2.6655142 3.3114223
v 103.5562439 60.7302322 3.0000000
vn 1.1671336 -2.9045522 3.3114066
v 103.8288574 60.8676796 3.0000000
vn 3.0852499 0.5290252 3.3113947
v 102.7258911 58.8932762 3.0000000
vn 3.1302729 -0.0000017 3.3114274
v 102.6999969 59.1974792 3.0000000
vn 0.0000000 0.0000000 6.2831759
v 88.0261841 56.5474777 3.0000000
vn -2.2599087 2.1659706 3.3114171
v 105.7995224 57.9519882 3.0000000
vn -1.8613591 2.5167391 3.3113945
v 105.5703354 57.7502823 3.0000000
vn -1.4092515 2.7951066 3.3114231
v 105.3103638 57.5902100 3.0000000
vn -0.9166161 2.9930677 3.3113875
v 105.0270767 57.4763794 3.0000000
vn -0.3976039 3.1049190 3.3114271
v 104.7286301 57.4120560 3.0000000
vn 0.1328506 3.1274576 3.3113909
v 104.4236069 57.3991013 3.0000000
vn 0.6594833 3.0600147 3.3114274
v 104.1207733 57.4378777 3.0000000
vn 1.1671515 2.9045467 3.3113947
v 103.8288574 57.5272789 3.0000000
vn 1.6412194 2.6655240 3.3114123
v 103.5562439 57.6647263 3.0000000
vn 2.0680895 2.3498151 3.3114059
v 103.3107834 57.8462677 3.0000000
vn 2.4354658 1.9665000 3.3114157
v 103.0995331 58.0666809 3.0000000
vn 2.7327745 -1.5266218 3.3113992
v 102.9285736 60.0753288 3.0000000
vn 2.4354663 -1.9665000 3.3114157
v 103.0995331 60.3282738 3.0000000
vn 2.0681021 -2.3498058 3.3113956
v 103.3107834 60.5486870 3.0000000
vn -0.9166144 -2.9930654 3.3114111
v 105.0270767 60.9185791 3.0000000
vn -1.4092683 -2.7950997 3.3114116
v 105.3103638 60.8047447 3.0000000
vn -1.8613594 -2.5167394 3.3113945
v 105.5703354 60.6446724 3.0000000
vn -2.2599087 -2.1659706 3.3114173
v 105.7995224 60.4429665 3.0000000
vn -2.5934601 -1.7528807 3.3114064
v 105.9913177 60.2054329 3.0000000
vn -2.8523936 -1.2893670 3.3114121
v 106.1402130 59.9389000 3.0000000
vn -3.0292702 -0.7887658 3.3114038
v 106.2419205 59.6510391 3.0000000
vn 2.7327781 1.5266147 3.3114042
v 102.9285736 58.3196259 3.0000000
vn 2.9514673 1.0428116 3.3114138
v 102.8028183 58.5978279 3.0000000
vn 3.0852509 -0.5290220 3.3113904
v 102.7258911 59.5016785 3.0000000
vn 2.9514656 -1.0428145 3.3114219
v 102.8028183 59.7971306 3.0000000
vn 0.6594844 -3.0600169 3.3114030
v 104.1207733 60.9570770 3.0000000
vn 0.1328503 -3.1274538 3.3114159
v 104.4236069 60.9958572 3.0000000
vn -0.3976046 -3.1049218 3.3114023
v 104.7286301 60.9828987 3.0000000
vn -3.1175814 -0.3321440 3.2689550
v 106.2935181 59.3501282 3.0000000
vn -3.1387615 -0.0000017 3.2267270
v 106.3000031 59.1974792 3.0000000
vn -3.1175811 0.3321456 3.2689586
v 106.2935181 59.0448265 3.0000000
vn -3.0292714 0.7887627 3.3113973
v 106.2419205 58.7439194 3.0000000
vn -2.8523960 1.2893610 3.3114161
v 106.1402130 58.4560547 3.0000000
vn -2.5934596 1.7528803 3.3114064
v 105.9913177 58.1895218 3.0000000
vn 0.9768230 -2.9754806 3.3001935
v 86.9358826 52.1996918 3.0000000
vn 0.4946206 -3.0924129 3.3001957
v 90.0153656 52.9464569 3.0000000
vn 2.2599254 2.1659515 3.3114276
v 69.7878189 53.1595688 3.0000000
vn -0.1328347 3.1274562 3.3114071
v 70.9344177 52.6988297 3.0000000
vn 0.3976052 3.1049228 3.3113985
v 70.6802292 52.7096291 3.0000000
vn 0.9166096 2.9930663 3.3114114
v 70.4315186 52.7632294 3.0000000
vn 1.4092569 2.7951059 3.3114061
v 70.1954498 52.8580894 3.0000000
vn 1.8613533 2.5167413 3.3114042
v 69.9788055 52.9914818 3.0000000
vn 2.2599154 -2.1659625 3.3114181
v 69.7878189 55.2353859 3.0000000
vn 1.8613536 -2.5167420 3.3114042
v 69.9788055 55.4034729 3.0000000
vn 0.0000000 0.0000000 6.2831841
v 69.5615616 56.5474777 3.0000000
vn 1.4092771 -2.7950978 3.3113923
v 70.1954498 55.5368652 3.0000000
vn 0.9166299 -2.9930582 3.3114257
v 70.4315186 55.6317291 3.0000000
vn -0.6594902 -3.0600142 3.3114231
v 71.1867752 55.6638107 3.0000000
vn -1.1671295 -2.9045579 3.3113790
v 71.4300385 55.5893097 3.0000000
vn -1.6412263 -2.6655140 3.3114510
v 71.6572189 55.4747734 3.0000000
vn -2.0680988 -2.3498144 3.3113651
v 71.8617630 55.3234863 3.0000000
vn -2.4354563 -1.9665060 3.3114448
v 72.0378113 55.1398087 3.0000000
vn -2.7327795 -1.5266166 3.3113813
v 72.1802750 54.9290199 3.0000000
vn 2.2312617 -2.1975298 3.3001955
v 78.9247055 47.2314987 3.0000000
vn -2.0680947 2.3498135 3.3113871
v 71.8617630 53.0714684 3.0000000
vn 2.5503323 -1.8175462 3.3001928
v 76.8870392 44.8048172 3.0000000
vn -1.6412300 2.6655159 3.3114252
v 71.6572189 52.9201851 3.0000000
vn 2.8053827 -1.3919399 3.3001981
v 75.2582092 42.0867691 3.0000000
vn -1.1671484 2.9045482 3.3113923
v 71.4300385 52.8056450 3.0000000
vn 2.9900129 -0.9313918 3.3001971
v 74.0791092 39.1455803 3.0000000
vn -0.6594901 3.0600138 3.3114238
v 71.1867752 52.7311440 3.0000000
vn 3.0995879 -0.4474592 3.3001916
v 73.3793335 36.0550842 3.0000000
vn 3.1313567 0.0477026 3.3001933
v 73.1764603 32.8928528 3.0000000
vn 0.3975816 -3.1049230 3.3114133
v 70.6802292 55.6853294 3.0000000
vn -0.1328581 -3.1274571 3.3113947
v 70.9344177 55.6961250 3.0000000
vn -2.9514546 -1.0428488 3.3114121
v 72.2850723 54.6971893 3.0000000
vn -3.0852466 -0.5290302 3.3114178
v 72.3491821 54.4509811 3.0000000
vn -3.1302762 -0.0000001 3.3114066
v 72.3707581 54.1974792 3.0000000
vn -3.0852466 0.5290301 3.3114173
v 72.3491821 53.9439774 3.0000000
vn 1.4345064 -2.7838569 3.3001902
v 84.0129929 50.9759331 3.0000000
vn -2.9514594 1.0428402 3.3114057
v 72.2850723 53.6977692 3.0000000
vn 1.8561809 -2.5223520 3.3001916
v 81.3200684 49.3058929 3.0000000
vn -2.7327766 1.5266190 3.3113959
v 72.1802750 53.4659348 3.0000000
vn -2.4354601 1.9665051 3.3114262
v 72.0378113 53.2551498 3.0000000
vn 3.0292640 0.7887639 3.3114529
v 69.4191513 53.8195114 3.0000000
vn 3.1190047 0.2654340 3.3113880
v 69.3761597 54.0702705 3.0000000
vn 3.1190028 -0.2654378 3.3113904
v 69.3761597 54.3246880 3.0000000
vn 3.0292654 -0.7887602 3.3114452
v 69.4191513 54.5754433 3.0000000
vn 2.8523908 -1.2893840 3.3113842
v 69.5039139 54.8153305 3.0000000
vn 2.5934701 -1.7528636 3.3114114
v 69.6279907 55.0374413 3.0000000
vn -3.0292733 0.7887532 3.3114038
v 7.7419205 58.7439194 3.0000000
vn -2.8523939 1.2893646 3.3114192
v 7.6402130 58.4560547 3.0000000
vn -3.1175828 0.3321410 3.2689490
v 7.7935162 59.0448265 3.0000000
vn -2.5934544 1.7528887 3.3114073
v 7.4913168 58.1895218 3.0000000
vn -2.2599235 2.1659591 3.3113983
v 7.2995200 57.9519882 3.0000000
vn -1.8613744 2.5167251 3.3114126
v 7.0703402 57.7502823 3.0000000
vn 0.1328545 3.1274564 3.3113921
v 5.9236064 57.3991013 3.0000000
vn 0.6594843 3.0600147 3.3114243
v 5.6207776 57.4378777 3.0000000
vn -1.4092667 -2.7951007 3.3114080
v 6.8103671 60.8047447 3.0000000
vn -1.8613741 -2.5167251 3.3114126
v 7.0703402 60.6446724 3.0000000
vn -2.8523920 -1.2893710 3.3114152
v 7.6402130 59.9389000 3.0000000
vn -3.0292716 -0.7887563 3.3114100
v 7.7419205 59.6510391 3.0000000
vn -3.1175828 -0.3321393 3.2689457
v 7.7935162 59.3501282 3.0000000
vn -3.1387613 -0.0000017 3.2267327
v 7.8000016 59.1974792 3.0000000
vn -0.3976020 3.1049190 3.3114266
v 6.2286334 57.4120560 3.0000000
vn 1.1671504 2.9045470 3.3113966
v 5.3288603 57.5272789 3.0000000
vn 1.6412129 2.6655283 3.3114059
v 5.0562472 57.6647263 3.0000000
vn 2.0680933 2.3498082 3.3114214
v 4.8107839 57.8462677 3.0000000
vn 2.4354720 1.9664946 3.3114004
v 4.5995378 58.0666809 3.0000000
vn 2.7327752 1.5266171 3.3114123
v 4.4285765 58.3196259 3.0000000
vn 2.9514644 1.0428261 3.3113985
v 4.3028221 58.5978279 3.0000000
vn -1.4092498 2.7951078 3.3114195
v 6.8103671 57.5902100 3.0000000
vn -0.9166169 2.9930677 3.3113894
v 6.5270810 57.4763794 3.0000000
vn 3.0852470 0.5290266 3.3114178
v 4.2258911 58.8932762 3.0000000
vn 3.1302757 -0.0000017 3.3114054
v 4.2000003 59.1974792 3.0000000
vn 3.0852478 -0.5290234 3.3114138
v 4.2258911 59.5016785 3.0000000
vn 2.9514625 -1.0428288 3.3114069
v 4.3028221 59.7971306 3.0000000
vn -2.2599232 -2.1659589 3.3113983
v 7.2995200 60.4429665 3.0000000
vn -2.5934544 -1.7528889 3.3114073
v 7.4913168 60.2054329 3.0000000
vn 2.7327719 -1.5266244 3.3114071
v 4.4285765 60.0753288 3.0000000
vn 2.4354725 -1.9664952 3.3114004
v 4.5995378 60.3282738 3.0000000
vn 2.0681057 -2.3497987 3.3114114
v 4.8107839 60.5486870 3.0000000
vn 1.6412256 -2.6655188 3.3114159
v 5.0562472 60.7302322 3.0000000
vn 1.1671321 -2.9045520 3.3114090
v 5.3288603 60.8676796 3.0000000
vn 0.6594856 -3.0600178 3.3113997
v 5.6207776 60.9570770 3.0000000
vn 0.1328542 -3.1274533 3.3114173
v 5.9236064 60.9958572 3.0000000
vn -0.3976028 -3.1049216 3.3114021
v 6.2286334 60.9828987 3.0000000
vn -0.9166151 -2.9930649 3.3114133
v 6.5270810 60.9185791 3.0000000
vn -1.5214012 -0.3908193 -3.2192025
v 60.0770149 36.6566925 0.0000000
vn 0.0000000 0.0000000 -6.2831855
v 64.5979309 30.2487392 0.0000000
vn -1.5194045 -0.3985111 -3.0589232
v 65.6427917 4.9622355 0.0000000
vn 0.0000000 0.0000000 -6.2831612
v 29.9251232 56.5474777 0.0000000
vn 0.0000000 0.0000000 -6.2831922
v 2.1000021 61.8474770 0.0000000
vn 0.4946206 -3.0924129 -3.3001957
v 90.0153656 52.9464569 0.0000000
vn 0.9768230 -2.9754806 -3.3001862
v 86.9358826 52.1996918 0.0000000
vn 0.0000000 0.0000000 -6.2831740
v 88.0261841 56.5474777 0.0000000
vn 3.0852499 0.5290251 -3.3113947
v 102.7258911 58.8932762 0.0000000
vn 2.9514680 1.0428119 -3.3114138
v 102.8028183 58.5978279 0.0000000
vn 3.1302729 -0.0000017 -3.3114274
v 102.6999969 59.1974792 0.0000000
vn 1.1671515 2.9045467 -3.3113947
v 103.8288574 57.5272789 0.0000000
vn 1.6412194 2.6655240 -3.3114123
v 103.5562439 57.6647263 0.0000000
vn 2.0680895 2.3498151 -3.3114059
v 103.3107834 57.8462677 0.0000000
vn 0.0000000 0.0000000 -6.2831964
v 88.0261841 61.8474770 0.0000000
vn 2.9514656 -1.0428145 -3.3114219
v 102.8028183 59.7971306 0.0000000
vn 3.0852509 -0.5290220 -3.3113904
v 102.7258911 59.5016785 0.0000000
vn 2.7327774 1.5266142 -3.3114042
v 102.9285736 58.3196259 0.0000000
vn 2.4354663 1.9665000 -3.3114157
v 103.0995331 58.0666809 0.0000000
vn -0.9166163 2.9930682 -3.3113875
v 105.0270767 57.4763794 0.0000000
vn -1.4092512 2.7951064 -3.3114231
v 105.3103638 57.5902100 0.0000000
vn -1.8613594 2.5167394 -3.3113945
v 105.5703354 57.7502823 0.0000000
vn 0.6594846 -3.0600176 -3.3114030
v 104.1207733 60.9570770 0.0000000
vn 1.1671333 -2.9045515 -3.3114066
v 103.8288574 60.8676796 0.0000000
vn 1.6412320 -2.6655147 -3.3114223
v 103.5562439 60.7302322 0.0000000
vn 2.0681019 -2.3498054 -3.3113956
v 103.3107834 60.5486870 0.0000000
vn 2.4354658 -1.9665000 -3.3114157
v 103.0995331 60.3282738 0.0000000
vn 2.7327747 -1.5266221 -3.3113992
v 102.9285736 60.0753288 0.0000000
vn 0.6594833 3.0600147 -3.3114274
v 104.1207733 57.4378777 0.0000000
vn 0.1328506 3.1274574 -3.3113909
v 104.4236069 57.3991013 0.0000000
vn -0.3976038 3.1049187 -3.3114271
v 104.7286301 57.4120560 0.0000000
vn -1.4092684 -2.7950997 -3.3114116
v 105.3103638 60.8047447 0.0000000
vn -1.8613591 -2.5167391 -3.3113945
v 105.5703354 60.6446724 0.0000000
vn -2.2599087 -2.1659706 -3.3114173
v 105.7995224 60.4429665 0.0000000
vn -0.9166144 -2.9930649 -3.3114111
v 105.0270767 60.9185791 0.0000000
vn -0.3976046 -3.1049218 -3.3114023
v 104.7286301 60.9828987 0.0000000
vn 0.1328503 -3.1274540 -3.3114159
v 104.4236069 60.9958572 0.0000000
vn -2.2599087 2.1659706 -3.3114171
v 105.7995224 57.9519882 0.0000000
vn -2.5934601 1.7528807 -3.3114066
v 105.9913177 58.1895218 0.0000000
vn -2.8523958 1.2893608 -3.3114161
v 106.1402130 58.4560547 0.0000000
vn -3.0292711 0.7887626 -3.3113971
v 106.2419205 58.7439194 0.0000000
vn -3.1189933 0.2676351 -3.3081291
v 106.2935181 59.0448265 0.0000000
vn -3.1189940 -0.2676318 -3.3081272
v 106.2935181 59.3501282 0.0000000
vn -3.0292692 -0.7887655 -3.3114038
v 106.2419205 59.6510391 0.0000000
vn -2.8523943 -1.2893674 -3.3114121
v 106.1402130 59.9389000 0.0000000
vn -2.5934596 -1.7528803 -3.3114066
v 105.9913177 60.2054329 0.0000000
vn 1.4063529 2.7986517 -3.2968111
v 75.0624161 67.3269119 0.0000000
vn 0.9567845 2.9824224 -3.2968116
v 77.9330826 66.1534653 0.0000000
vn 0.0000000 0.0000000 -6.2831855
v 69.5615616 61.8474770 0.0000000
vn 0.4842117 3.0944817 -3.2968106
v 80.9506531 65.4379196 0.0000000
vn 0.0000000 0.0000000 -6.2831874
v 64.5979309 73.4643784 0.0000000
vn 2.5132298 1.8692117 -3.2968135
v 67.9945374 73.2617722 0.0000000
vn 0.0000000 0.0000000 -6.2831855
v 64.5979309 61.8474770 0.0000000
vn 2.1940429 2.2352753 -3.2968087
v 70.0326767 70.9243164 0.0000000
vn 1.8221045 2.5475898 -3.2968104
v 72.4076691 68.9300461 0.0000000
vn 1.6412430 2.6655123 -3.3113956
v 57.0813599 81.4985275 0.0000000
vn 1.1671693 2.9045362 -3.3114152
v 57.3539696 81.3610764 0.0000000
vn 0.0000000 0.0000000 -6.2832108
v 55.6376801 73.4643784 0.0000000
vn 3.1302762 0.0000033 -3.3114009
v 56.2251129 83.0312729 0.0000000
vn -1.2819498 2.8563790 -2.9762437
v 55.5683899 88.5052643 0.0000000
vn 3.0852473 -0.5290225 -3.3114202
v 56.2510033 83.3354797 0.0000000
vn 2.9514670 -1.0428214 -3.3113954
v 56.3279343 83.6309280 0.0000000
vn 3.0852466 0.5290257 -3.3114183
v 56.2510033 82.7270737 0.0000000
vn 2.9514675 1.0428214 -3.3113954
v 56.3279343 82.4316254 0.0000000
vn 2.7327728 1.5266190 -3.3114209
v 56.4536858 82.1534271 0.0000000
vn 2.4354565 1.9665130 -3.3114052
v 56.6246490 81.9004822 0.0000000
vn 2.0680895 2.3498151 -3.3114057
v 56.8358994 81.6800690 0.0000000
vn 2.0680895 -2.3498151 -3.3114059
v 56.8358994 84.3824844 0.0000000
vn 1.6412427 -2.6655121 -3.3113956
v 57.0813599 84.5640259 0.0000000
vn 1.1671692 -2.9045358 -3.3114152
v 57.3539696 84.7014771 0.0000000
vn 0.6594994 3.0600128 -3.3114100
v 57.6458893 81.2716751 0.0000000
vn 0.1328340 3.1274526 -3.3114290
v 57.9487190 81.2328949 0.0000000
vn -0.3976046 3.1049247 -3.3113782
v 58.2537460 81.2458572 0.0000000
vn 2.4354568 -1.9665134 -3.3114052
v 56.6246490 84.1620712 0.0000000
vn 2.7327724 -1.5266186 -3.3114209
v 56.4536858 83.9091263 0.0000000
vn -1.8613690 2.5167308 -3.3114028
v 59.0954514 81.5840836 0.0000000
vn -2.2599182 2.1659617 -3.3114090
v 59.3246346 81.7857895 0.0000000
vn 2.9640934 1.0121406 -3.2968092
v 65.1155853 78.7345428 0.0000000
vn 2.7719882 1.4582050 -3.2968087
v 66.3422699 75.8862152 0.0000000
vn -0.9166126 2.9930627 -3.3114350
v 58.5521927 81.3101730 0.0000000
vn -1.4092849 2.7950926 -3.3113999
v 58.8354797 81.4240112 0.0000000
vn 1.5194037 0.3985144 -3.0589213
v 63.9346848 84.0690384 0.0000000
vn 1.5214013 0.3908188 -3.2192047
v 64.3439865 81.7382660 0.0000000
vn -3.1189935 0.2676305 -3.3081291
v 59.8186302 82.8786240 0.0000000
vn 0.6594609 -3.0600181 -3.3114347
v 57.6458893 84.7908783 0.0000000
vn -0.7943114 3.0284266 -2.9762440
v 56.5028839 88.8349686 0.0000000
vn 0.1328346 -3.1274590 -3.3113794
v 57.9487190 84.8296509 0.0000000
vn -0.2850111 3.1178625 -2.9762449
v 57.4789009 89.0063629 0.0000000
vn -0.3975656 -3.1049268 -3.3114033
v 58.2537460 84.8166962 0.0000000
vn 0.2320529 3.1222520 -2.9762526
v 58.4698181 89.0147705 0.0000000
vn -0.9166123 -2.9930620 -3.3114352
v 58.5521927 84.7523804 0.0000000
vn 0.7427915 3.0414727 -2.9762397
v 59.4486046 88.8599701 0.0000000
vn -1.4092853 -2.7950931 -3.3113995
v 58.8354797 84.6385422 0.0000000
vn 1.2332737 2.8777313 -2.9762471
v 60.3885612 88.5461731 0.0000000
vn -1.8613687 -2.5167303 -3.3114026
v 59.0954514 84.4784698 0.0000000
vn 1.6901098 2.6354940 -2.9762454
v 61.2640495 88.0819473 0.0000000
vn -2.2599182 -2.1659620 -3.3114092
v 59.3246346 84.2767639 0.0000000
vn 2.1008492 2.3213639 -2.9762440
v 62.0511894 87.4799500 0.0000000
vn -2.5934596 -1.7528803 -3.3114061
v 59.5164299 84.0392303 0.0000000
vn 2.4542780 1.9439194 -2.9762487
v 62.7285042 86.7566071 0.0000000
vn -2.8523960 -1.2893610 -3.3114166
v 59.6653252 83.7726974 0.0000000
vn -2.5934601 1.7528807 -3.3114064
v 59.5164299 82.0233231 0.0000000
vn -2.8523915 1.2893732 -3.3114080
v 59.6653252 82.2898560 0.0000000
vn -3.0292673 0.7887717 -3.3114078
v 59.7670326 82.5777130 0.0000000
vn -3.1189916 -0.2676371 -3.3081329
v 59.8186302 83.1839294 0.0000000
vn -3.0292711 -0.7887660 -3.3113956
v 59.7670326 83.4848328 0.0000000
vn 2.9524889 1.0416847 -2.9762416
v 63.6832771 85.0275726 0.0000000
vn 2.7407613 1.5134488 -2.9762442
v 63.2775269 85.9316483 0.0000000
vn -3.0817971 0.5451800 -3.3160548
v 52.4875641 75.5200043 0.0000000
vn -3.1296468 0.0019679 -3.3160565
v 52.6786804 77.6896210 0.0000000
vn -1.5649095 -0.1358660 -3.2288249
v 52.4902916 79.8594894 0.0000000
vn -2.7660575 1.4667054 -2.9762447
v 52.7242241 85.8420715 0.0000000
vn -2.4869261 1.9019737 -2.9762504
v 53.2591629 86.6762314 0.0000000
vn -2.1399484 2.2853696 -2.9762371
v 53.9241028 87.4109726 0.0000000
vn -1.5642740 -0.1429961 -3.0589173
v 52.1155396 81.9935150 0.0000000
vn -3.1307497 -0.0265708 -2.9762454
v 52.0253296 82.9803467 0.0000000
vn -3.0924253 0.4890905 -2.9762495
v 52.0987778 83.9685745 0.0000000
vn -1.7346060 2.6064246 -2.9762549
v 54.7009087 88.0262375 0.0000000
vn -2.9697456 0.9914167 -2.9762411
v 52.3338776 84.9312363 0.0000000
vn 3.0292711 -0.7887636 -3.3113976
v 52.0986481 64.5754471 0.0000000
vn 3.1189961 -0.2654757 -3.3114116
v 52.0556488 64.3246841 0.0000000
vn -1.5642581 2.7106807 -3.3160586
v 46.4264145 66.8708496 0.0000000
vn -1.0699899 2.9410567 -3.3160565
v 44.4522934 65.9507217 0.0000000
vn -2.0680845 -2.3498173 -3.3114164
v 54.5412598 65.3234863 0.0000000
vn -2.3967469 2.0125353 -3.3160489
v 49.7514305 69.6592941 0.0000000
vn -2.7096980 1.5659597 -3.3160584
v 51.0013809 71.4429474 0.0000000
vn 3.0292721 0.7887640 -3.3113875
v 52.0986481 63.8195114 0.0000000
vn 2.8523901 1.2893702 -3.3114328
v 52.1834030 63.5796242 0.0000000
vn 0.0000000 0.0000000 -6.2831640
v 29.9251232 61.8474770 0.0000000
vn -2.0110323 2.3980083 -3.3160560
v 48.2108536 68.1196823 0.0000000
vn 2.5934734 -1.7528687 -3.3113720
v 52.3074837 65.0374374 0.0000000
vn 2.8523872 -1.2893776 -3.3114278
v 52.1834030 64.8153305 0.0000000
vn 3.1189947 0.2654836 -3.3114197
v 52.0556488 64.0702667 0.0000000
vn -0.5432404 3.0821397 -3.3160551
v 42.3484230 65.3872299 0.0000000
vn 2.5934641 1.7528803 -3.3113813
v 52.3074837 63.3575172 0.0000000
vn 2.2599373 2.1659415 -3.3114181
v 52.4673119 63.1595688 0.0000000
vn 1.8613651 2.5167313 -3.3114142
v 52.6582947 62.9914818 0.0000000
vn -0.1328345 3.1274562 -3.3114095
v 53.6139069 62.6988297 0.0000000
vn -0.6594836 3.0600164 -3.3114188
v 53.8662643 62.7311440 0.0000000
vn 0.0000000 0.0000000 -6.2831903
v 55.6376801 61.8474770 0.0000000
vn -1.1671512 2.9045458 -3.3114035
v 54.1095314 62.8056450 0.0000000
vn -1.6412170 2.6655283 -3.3114009
v 54.3367081 62.9201851 0.0000000
vn -2.0680957 2.3498054 -3.3114266
v 54.5412598 63.0714684 0.0000000
vn -2.4354730 1.9664968 -3.3113918
v 54.7173004 63.2551498 0.0000000
vn -2.7327740 1.5266151 -3.3114221
v 54.8597679 63.4659348 0.0000000
vn -1.6412165 -2.6655273 -3.3113995
v 54.3367081 65.4747696 0.0000000
vn -1.1671515 -2.9045463 -3.3114040
v 54.1095314 65.5893097 0.0000000
vn -0.6595067 -3.0600128 -3.3114038
v 53.8662643 65.6638107 0.0000000
vn -0.1328343 -3.1274519 -3.3114398
v 53.6139069 65.6961288 0.0000000
vn 0.3976110 -3.1049256 -3.3113720
v 53.3597183 65.6853256 0.0000000
vn 0.9166040 -2.9930651 -3.3114314
v 53.1110115 65.6317291 0.0000000
vn 1.4092692 -2.7951016 -3.3113980
v 52.8749390 65.5368652 0.0000000
vn 1.8613515 -2.5167427 -3.3114028
v 52.6582947 65.4034729 0.0000000
vn 2.2599330 -2.1659410 -3.3114386
v 52.4673119 65.2353897 0.0000000
vn 1.4092486 2.7951093 -3.3114116
v 52.8749390 62.8580894 0.0000000
vn 0.9166065 2.9930692 -3.3114026
v 53.1110115 62.7632294 0.0000000
vn 0.3976099 3.1049206 -3.3114014
v 53.3597183 62.7096291 0.0000000
vn -3.1302762 0.0000001 -3.3114066
v 55.0502472 64.1974792 0.0000000
vn -3.0852466 -0.5290301 -3.3114176
v 55.0286713 64.4509811 0.0000000
vn -2.9514685 -1.0428207 -3.3113923
v 54.9645615 64.6971893 0.0000000
vn -2.7327752 -1.5266157 -3.3114228
v 54.8597679 64.9290237 0.0000000
vn -2.9514682 1.0428207 -3.3113923
v 54.9645615 63.6977692 0.0000000
vn -3.0852466 0.5290302 -3.3114178
v 55.0286713 63.9439774 0.0000000
vn -2.9403834 1.0718391 -3.3160558
v 51.9227486 73.4164886 0.0000000
vn -2.4354610 -1.9665082 -3.3114018
v 54.7173004 65.1398087 0.0000000
vn 0.0000000 0.0000000 -6.2831979
v 2.1000021 56.5474777 0.0000000
vn -2.5132298 -1.8692124 -3.2968097
v 56.4264603 45.1331825 0.0000000
vn -2.1940427 -2.2352750 -3.2968123
v 54.3883247 47.4706421 0.0000000
vn 0.0000000 0.0000000 -6.2831850
v 55.6376801 56.5474777 0.0000000
vn -1.8221024 -2.5475914 -3.2968087
v 52.0133286 49.4649086 0.0000000
vn -1.4063529 -2.7986517 -3.2968111
v 49.3585815 51.0680428 0.0000000
vn -0.9567848 -2.9824219 -3.2968113
v 46.4879150 52.2414894 0.0000000
vn -0.4842139 -3.0944815 -3.2968094
v 43.4703484 52.9570351 0.0000000
vn 0.0000000 0.0000000 -6.2831869
v 64.5979309 56.5474777 0.0000000
vn -2.9640939 -1.0121394 -3.2968090
v 59.3054161 39.6604118 0.0000000
vn -2.7719870 -1.4582062 -3.2968118
v 58.0787354 42.5087395 0.0000000
vn 0.0000000 0.0000000 -6.2831879
v 69.5615616 2.0999982 0.0000000
vn -2.4542828 -1.9439127 -2.9762452
v 66.8489685 2.2746661 0.0000000
vn -2.7407644 -1.5134453 -2.9762506
v 66.2999496 3.0996277 0.0000000
vn -1.2332741 -2.8777308 -2.9762468
v 69.1889114 0.4850999 0.0000000
vn -1.6901096 -2.6354942 -2.9762468
v 68.3134232 0.9493269 0.0000000
vn -2.1008484 -2.3213654 -2.9762430
v 67.5262833 1.5513227 0.0000000
vn 2.1399486 -2.2853706 -2.9762449
v 75.6533737 1.6203076 0.0000000
vn 1.7346054 -2.6064241 -2.9762478
v 74.8765640 1.0050349 0.0000000
vn 1.2819479 -2.8563809 -2.9762464
v 74.0090866 0.5260147 0.0000000
vn 0.7943121 -3.0284262 -2.9762409
v 73.0745926 0.1963079 0.0000000
vn 0.2850148 -3.1178632 -2.9762497
v 72.0985718 0.0249147 0.0000000
vn -0.2320459 -3.1222520 -2.9762480
v 71.1076584 0.0165030 0.0000000
vn -0.7427899 -3.0414734 -2.9762411
v 70.1288681 0.1713037 0.0000000
vn -0.9166192 2.9930644 -3.3114052
v 72.0794449 4.2788982 0.0000000
vn -1.4092642 2.7951012 -3.3114119
v 72.3627319 4.3927321 0.0000000
vn 2.9514723 -1.0428178 -3.3113692
v 69.8551865 6.5996499 0.0000000
vn 3.0852437 -0.5290232 -3.3114424
v 69.7782516 6.3042006 0.0000000
vn 0.0000000 0.0000000 -6.2831769
v 69.5615616 30.2487392 0.0000000
vn 3.1302795 -0.0000017 -3.3113766
v 69.7523651 6.0000010 0.0000000
vn 3.0852437 0.5290222 -3.3114433
v 69.7782516 5.6957974 0.0000000
vn 2.9514720 1.0428172 -3.3113682
v 69.8551865 5.4003487 0.0000000
vn 2.7327714 1.5266142 -3.3114491
v 69.9809341 5.1221476 0.0000000
vn 2.4354477 1.9665277 -3.3113902
v 70.1519012 4.8692040 0.0000000
vn 2.0681028 2.3498044 -3.3113990
v 70.3631516 4.6487899 0.0000000
vn 1.6412342 2.6655135 -3.3114181
v 70.6086121 4.4672451 0.0000000
vn 1.1671355 2.9045506 -3.3114109
v 70.8812180 4.3298006 0.0000000
vn -1.8613770 2.5167232 -3.3114123
v 72.6227036 4.5528040 0.0000000
vn -2.2599320 2.1659486 -3.3114047
v 72.8518829 4.7545099 0.0000000
vn 2.4869206 -1.9019802 -2.9762478
v 76.3183136 2.3550429 0.0000000
vn -2.5934644 1.7528747 -3.3114030
v 73.0436783 4.9920454 0.0000000
vn 2.7660580 -1.4667033 -2.9762423
v 76.8532562 3.1892061 0.0000000
vn -2.8523946 1.2893662 -3.3114119
v 73.1925735 5.2585788 0.0000000
vn 2.9697471 -0.9914134 -2.9762449
v 77.2435989 4.1000395 0.0000000
vn -3.0292699 0.7887666 -3.3114035
v 73.2942810 5.5464396 0.0000000
vn 3.0924249 -0.4890913 -2.9762502
v 77.4786987 5.0626993 0.0000000
vn -3.1189928 0.2676326 -3.3081272
v 73.3458786 5.8473496 0.0000000
vn 3.1307497 0.0265698 -2.9762449
v 77.5521469 6.0509257 0.0000000
vn -3.1189933 -0.2676322 -3.3081267
v 73.3458786 6.1526484 0.0000000
vn 1.5642741 0.1429954 -3.0589144
v 77.4619370 7.0377626 0.0000000
vn -3.0292711 -0.7887606 -3.3113999
v 73.2942810 6.4535589 0.0000000
vn -1.8613775 -2.5167234 -3.3114100
v 72.6227036 7.4471941 0.0000000
vn -1.4092641 -2.7951016 -3.3114145
v 72.3627319 7.6072664 0.0000000
vn 1.5637828 0.1482704 -3.2209172
v 73.4755630 29.7382660 0.0000000
vn -0.9166169 -2.9930649 -3.3114038
v 72.0794449 7.7210999 0.0000000
vn -0.3976002 -3.1049206 -3.3114142
v 71.7809982 7.7854209 0.0000000
vn 1.6412327 -2.6655149 -3.3114171
v 70.6086121 7.5327530 0.0000000
vn 2.0681024 -2.3498042 -3.3114016
v 70.3631516 7.3512087 0.0000000
vn 0.6594874 3.0600166 -3.3113985
v 71.1731415 4.2404013 0.0000000
vn 0.1328692 3.1274538 -3.3114100
v 71.4759674 4.2016211 0.0000000
vn -0.3975978 3.1049209 -3.3114157
v 71.7809982 4.2145772 0.0000000
vn -2.8523915 -1.2893690 -3.3114212
v 73.1925735 6.7414231 0.0000000
vn -2.5934606 -1.7528818 -3.3113964
v 73.0436783 7.0079527 0.0000000
vn -2.2599316 -2.1659486 -3.3114066
v 72.8518829 7.2454886 0.0000000
vn 2.4354486 -1.9665265 -3.3113890
v 70.1519012 7.1307940 0.0000000
vn 2.7327704 -1.5266148 -3.3114486
v 69.9809341 6.8778505 0.0000000
vn 0.1328667 -3.1274538 -3.3114109
v 71.4759674 7.7983775 0.0000000
vn 0.6594899 -3.0600171 -3.3114002
v 71.1731415 7.7595973 0.0000000
vn 1.1671379 -2.9045506 -3.3114095
v 70.8812180 7.6701975 0.0000000
vn 2.8523884 1.2893915 -3.3113792
v 69.5039139 53.5796280 0.0000000
vn 2.5934794 1.7528521 -3.3114018
v 69.6279907 53.3575172 0.0000000
vn 2.2599258 2.1659517 -3.3114276
v 69.7878189 53.1595688 0.0000000
vn 1.8613536 2.5167420 -3.3114042
v 69.9788055 52.9914818 0.0000000
vn -2.0680988 -2.3498144 -3.3113651
v 71.8617630 55.3234863 0.0000000
vn -1.6412263 -2.6655140 -3.3114510
v 71.6572189 55.4747734 0.0000000
vn 2.2312617 -2.1975298 -3.3001947
v 78.9247055 47.2314987 0.0000000
vn 2.5503323 -1.8175461 -3.3001928
v 76.8870392 44.8048172 0.0000000
vn -1.6412299 2.6655157 -3.3114252
v 71.6572189 52.9201851 0.0000000
vn 1.4092567 2.7951059 -3.3114061
v 70.1954498 52.8580894 0.0000000
vn 0.9166095 2.9930661 -3.3114114
v 70.4315186 52.7632294 0.0000000
vn 0.3976051 3.1049218 -3.3113980
v 70.6802292 52.7096291 0.0000000
vn 3.1313567 0.0477026 -3.3001952
v 73.1764603 32.8928528 0.0000000
vn -0.1328345 3.1274562 -3.3114052
v 70.9344177 52.6988297 0.0000000
vn 0.3975817 -3.1049240 -3.3114133
v 70.6802292 55.6853294 0.0000000
vn 0.9166299 -2.9930582 -3.3114257
v 70.4315186 55.6317291 0.0000000
vn 0.0000000 0.0000000 -6.2831845
v 69.5615616 56.5474777 0.0000000
vn -1.1671482 2.9045484 -3.3113923
v 71.4300385 52.8056450 0.0000000
vn 2.8053825 -1.3919399 -3.3001950
v 75.2582092 42.0867691 0.0000000
vn -0.6594902 3.0600142 -3.3114231
v 71.1867752 52.7311440 0.0000000
vn 2.9900131 -0.9313920 -3.3001940
v 74.0791092 39.1455803 0.0000000
vn 3.0995879 -0.4474591 -3.3001986
v 73.3793335 36.0550842 0.0000000
vn -2.0680950 2.3498139 -3.3113873
v 71.8617630 53.0714684 0.0000000
vn -2.4354601 1.9665051 -3.3114257
v 72.0378113 53.2551498 0.0000000
vn 1.8561810 -2.5223522 -3.3001928
v 81.3200684 49.3058929 0.0000000
vn -2.7327766 1.5266190 -3.3113956
v 72.1802750 53.4659348 0.0000000
vn 1.4345063 -2.7838564 -3.3001981
v 84.0129929 50.9759331 0.0000000
vn -2.9514589 1.0428400 -3.3114057
v 72.2850723 53.6977692 0.0000000
vn -2.9514556 -1.0428491 -3.3114121
v 72.2850723 54.6971893 0.0000000
vn -2.7327795 -1.5266166 -3.3113813
v 72.1802750 54.9290199 0.0000000
vn -2.4354558 -1.9665058 -3.3114448
v 72.0378113 55.1398087 0.0000000
vn 1.4092773 -2.7950981 -3.3113923
v 70.1954498 55.5368652 0.0000000
vn 1.8613532 -2.5167413 -3.3114042
v 69.9788055 55.4034729 0.0000000
vn 2.2599161 -2.1659629 -3.3114181
v 69.7878189 55.2353859 0.0000000
vn -3.0852466 0.5290302 -3.3114178
v 72.3491821 53.9439774 0.0000000
vn -3.1302762 0.0000001 -3.3114066
v 72.3707581 54.1974792 0.0000000
vn -3.0852466 -0.5290301 -3.3114178
v 72.3491821 54.4509811 0.0000000
vn -1.1671295 -2.9045577 -3.3113790
v 71.4300385 55.5893097 0.0000000
vn -0.6594901 -3.0600138 -3.3114231
v 71.1867752 55.6638107 0.0000000
vn -0.1328582 -3.1274571 -3.3113947
v 70.9344177 55.6961250 0.0000000
vn 3.1190031 -0.2654378 -3.3113904
v 69.3761597 54.3246880 0.0000000
vn 3.1190033 0.2654339 -3.3113880
v 69.3761597 54.0702705 0.0000000
vn 2.5934701 -1.7528635 -3.3114114
v 69.6279907 55.0374413 0.0000000
vn 2.8523903 -1.2893838 -3.3113840
v 69.5039139 54.8153305 0.0000000
vn 3.0292656 -0.7887602 -3.3114452
v 69.4191513 54.5754433 0.0000000
vn -2.9524884 -1.0416842 -2.9762378
v 65.8941956 4.0037074 0.0000000
vn 3.0292645 0.7887638 -3.3114529
v 69.4191513 53.8195114 0.0000000
vn 3.0852466 0.5290265 -3.3114178
v 4.2258911 58.8932762 0.0000000
vn 2.9514651 1.0428263 -3.3113985
v 4.3028221 58.5978279 0.0000000
vn -2.5934544 1.7528889 -3.3114073
v 7.4913168 58.1895218 0.0000000
vn -2.8523941 1.2893648 -3.3114192
v 7.6402130 58.4560547 0.0000000
vn -3.0292728 0.7887530 -3.3114038
v 7.7419205 58.7439194 0.0000000
vn -3.1189952 0.2676258 -3.3081224
v 7.7935162 59.0448265 0.0000000
vn -3.1189957 -0.2676225 -3.3081203
v 7.7935162 59.3501282 0.0000000
vn 2.7327747 1.5266168 -3.3114123
v 4.4285765 58.3196259 0.0000000
vn 2.4354725 1.9664950 -3.3114004
v 4.5995378 58.0666809 0.0000000
vn 2.0680931 2.3498082 -3.3114214
v 4.8107839 57.8462677 0.0000000
vn 1.6412129 2.6655283 -3.3114059
v 5.0562472 57.6647263 0.0000000
vn 1.1671500 2.9045463 -3.3113966
v 5.3288603 57.5272789 0.0000000
vn 0.6594844 3.0600150 -3.3114243
v 5.6207776 57.4378777 0.0000000
vn -1.4092499 2.7951083 -3.3114195
v 6.8103671 57.5902100 0.0000000
vn -1.8613741 2.5167251 -3.3114126
v 7.0703402 57.7502823 0.0000000
vn -2.2599232 2.1659589 -3.3113983
v 7.2995200 57.9519882 0.0000000
vn 0.1328545 3.1274567 -3.3113921
v 5.9236064 57.3991013 0.0000000
vn -0.3976019 3.1049182 -3.3114266
v 6.2286334 57.4120560 0.0000000
vn -0.9166169 2.9930677 -3.3113894
v 6.5270810 57.4763794 0.0000000
vn -3.0292711 -0.7887560 -3.3114100
v 7.7419205 59.6510391 0.0000000
vn -2.8523922 -1.2893710 -3.3114152
v 7.6402130 59.9389000 0.0000000
vn -2.5934544 -1.7528887 -3.3114073
v 7.4913168 60.2054329 0.0000000
vn -2.2599235 -2.1659591 -3.3113983
v 7.2995200 60.4429665 0.0000000
vn -1.8613743 -2.5167251 -3.3114126
v 7.0703402 60.6446724 0.0000000
vn -1.4092666 -2.7951012 -3.3114080
v 6.8103671 60.8047447 0.0000000
vn 0.1328542 -3.1274533 -3.3114173
v 5.9236064 60.9958572 0.0000000
vn -0.3976029 -3.1049223 -3.3114021
v 6.2286334 60.9828987 0.0000000
vn -0.9166149 -2.9930644 -3.3114133
v 6.5270810 60.9185791 0.0000000
vn 0.6594856 -3.0600176 -3.3113997
v 5.6207776 60.9570770 0.0000000
vn 1.1671324 -2.9045525 -3.3114090
v 5.3288603 60.8676796 0.0000000
vn 1.6412256 -2.6655188 -3.3114159
v 5.0562472 60.7302322 0.0000000
vn 2.7327719 -1.5266244 -3.3114071
v 4.4285765 60.0753288 0.0000000
vn 2.9514630 -1.0428289 -3.3114069
v 4.3028221 59.7971306 0.0000000
vn 3.0852475 -0.5290233 -3.3114135
v 4.2258911 59.5016785 0.0000000
vn 3.1302757 -0.0000017 -3.3114049
v 4.2000003 59.1974792 0.0000000
vn 2.0681059 -2.3497989 -3.3114114
v 4.8107839 60.5486870 0.0000000
vn 2.4354720 -1.9664946 -3.3114004
v 4.5995378 60.3282738 0.0000000
vn 1.5471224 0.2716867 0.0000000
v 63.9346848 84.0690384 0.0000000
vn 1.5471224 0.2716867 0.0000000
v 64.3439865 81.7382660 0.0000000
vn -1.5471226 -0.2716860 0.0000000
v 65.6427917 4.9622355 0.0000000
vn -1.5471224 -0.2716859 0.0000000
v 60.0770149 36.6566925 0.0000000
# 742 vertices, 0 vertices normals

f 1//1 2//2 3//3
f 3//3 2//2 4//4
f 5//5 6//6 7//7
f 7//7 6//6 8//8
f 9//9 10//10 11//11
f 11//11 10//10 12//12
f 11//11 12//12 13//13
f 13//13 12//12 14//14
f 15//15 16//16 17//17
f 17//17 16//16 18//18
f 19//19 20//20 21//21
f 21//21 20//20 22//22
f 21//21 22//22 23//23
f 23//23 22//22 24//24
f 10//10 9//9 25//25
f 10//10 25//25 26//26
f 26//26 25//25 27//27
f 26//26 27//27 28//28
f 28//28 27//27 29//29
f 28//28 29//29 30//30
f 30//30 29//29 31//31
f 30//30 31//31 32//32
f 32//32 31//31 33//33
f 32//32 33//33 34//34
f 34//34 33//33 35//35
f 34//34 35//35 36//36
f 36//36 35//35 37//37
f 36//36 37//37 38//38
f 38//38 37//37 39//39
f 38//38 39//39 40//40
f 40//40 39//39 41//41
f 40//40 41//41 42//42
f 42//42 41//41 43//43
f 42//42 43//43 44//44
f 44//44 43//43 45//45
f 44//44 45//45 46//46
f 46//46 45//45 47//47
f 46//46 47//47 48//48
f 48//48 47//47 49//49
f 48//48 49//49 50//50
f 50//50 49//49 51//51
f 50//50 51//51 52//52
f 52//52 51//51 53//53
f 52//52 53//53 54//54
f 54//54 53//53 55//55
f 54//54 55//55 56//56
f 56//56 55//55 57//57
f 56//56 57//57 58//58
f 58//58 57//57 59//59
f 58//58 59//59 60//60
f 60//60 59//59 61//61
f 60//60 61//61 62//62
f 63//63 64//64 65//65
f 65//65 64//64 66//66
f 65//65 66//66 61//61
f 61//61 66//66 62//62
f 2//2 1//1 67//67
f 2//2 67//67 68//68
f 68//68 67//67 69//69
f 68//68 69//69 70//70
f 70//70 69//69 71//71
f 70//70 71//71 72//72
f 72//72 71//71 73//73
f 72//72 73//73 74//74
f 74//74 73//73 75//75
f 74//74 75//75 76//76
f 76//76 75//75 77//77
f 76//76 77//77 78//78
f 78//78 77//77 79//79
f 78//78 79//79 80//80
f 80//80 79//79 81//81
f 80//80 81//81 82//82
f 82//82 81//81 83//83
f 82//82 83//83 84//84
f 84//84 83//83 85//85
f 84//84 85//85 86//86
f 86//86 85//85 87//87
f 86//86 87//87 88//88
f 88//88 87//87 89//89
f 88//88 89//89 90//90
f 90//90 89//89 91//91
f 90//90 91//91 92//92
f 92//92 91//91 93//93
f 92//92 93//93 94//94
f 94//94 93//93 95//95
f 94//94 95//95 96//96
f 96//96 95//95 97//97
f 96//96 97//97 98//98
f 98//98 97//97 99//99
f 98//98 99//99 100//100
f 100//100 99//99 101//101
f 100//100 101//101 102//102
f 102//102 101//101 23//23
f 102//102 23//23 24//24
f 103//103 104//104 105//105
f 106//106 107//107 108//108
f 109//109 110//110 6//6
f 111//111 112//112 113//113
f 113//113 112//112 114//114
f 115//115 116//116 108//108
f 116//116 117//117 108//108
f 108//108 117//117 118//118
f 108//108 118//118 119//119
f 109//109 6//6 120//120
f 120//120 6//6 5//5
f 120//120 5//5 121//121
f 110//110 122//122 6//6
f 6//6 122//122 123//123
f 6//6 123//123 124//124
f 124//124 123//123 125//125
f 124//124 125//125 126//126
f 126//126 125//125 127//127
f 126//126 127//127 128//128
f 128//128 127//127 129//129
f 128//128 129//129 130//130
f 130//130 129//129 131//131
f 130//130 131//131 132//132
f 132//132 131//131 133//133
f 132//132 133//133 112//112
f 112//112 133//133 134//134
f 112//112 134//134 114//114
f 107//107 135//135 108//108
f 108//108 135//135 136//136
f 108//108 136//136 115//115
f 119//119 137//137 108//108
f 108//108 137//137 138//138
f 108//108 138//138 105//105
f 139//139 140//140 5//5
f 5//5 140//140 141//141
f 5//5 141//141 121//121
f 138//138 142//142 105//105
f 105//105 142//142 143//143
f 105//105 143//143 144//144
f 144//144 145//145 105//105
f 105//105 145//145 146//146
f 105//105 146//146 147//147
f 147//147 148//148 105//105
f 105//105 148//148 149//149
f 105//105 149//149 150//150
f 151//151 152//152 108//108
f 111//111 106//106 112//112
f 112//112 106//106 108//108
f 112//112 108//108 153//153
f 153//153 108//108 152//152
f 154//154 155//155 108//108
f 108//108 155//155 156//156
f 108//108 156//156 151//151
f 108//108 157//157 158//158
f 158//158 159//159 108//108
f 108//108 159//159 160//160
f 108//108 160//160 154//154
f 161//161 162//162 108//108
f 108//108 162//162 163//163
f 108//108 163//163 157//157
f 164//164 165//165 166//166
f 166//166 167//167 164//164
f 164//164 167//167 168//168
f 164//164 168//168 169//169
f 169//169 168//168 170//170
f 169//169 170//170 161//161
f 62//62 66//66 171//171
f 171//171 66//66 64//64
f 171//171 64//64 165//165
f 64//64 172//172 165//165
f 165//165 172//172 173//173
f 165//165 173//173 174//174
f 174//174 175//175 165//165
f 165//165 175//175 176//176
f 165//165 176//176 166//166
f 56//56 58//58 177//177
f 177//177 58//58 60//60
f 177//177 60//60 62//62
f 46//46 48//48 177//177
f 177//177 48//48 50//50
f 50//50 52//52 177//177
f 177//177 52//52 54//54
f 177//177 54//54 56//56
f 40//40 42//42 178//178
f 178//178 42//42 177//177
f 177//177 42//42 44//44
f 177//177 44//44 46//46
f 34//34 36//36 178//178
f 178//178 36//36 38//38
f 178//178 38//38 40//40
f 28//28 178//178 26//26
f 26//26 178//178 10//10
f 28//28 30//30 178//178
f 178//178 30//30 32//32
f 178//178 32//32 34//34
f 179//179 180//180 181//181
f 181//181 180//180 182//182
f 183//183 184//184 185//185
f 186//186 187//187 188//188
f 188//188 187//187 189//189
f 188//188 189//189 182//182
f 190//190 191//191 192//192
f 192//192 191//191 193//193
f 192//192 193//193 194//194
f 194//194 193//193 195//195
f 194//194 195//195 196//196
f 180//180 197//197 182//182
f 182//182 197//197 198//198
f 182//182 198//198 188//188
f 188//188 198//198 199//199
f 188//188 199//199 200//200
f 201//201 194//194 202//202
f 202//202 194//194 203//203
f 200//200 204//204 185//185
f 185//185 204//204 205//205
f 196//196 206//206 194//194
f 194//194 206//206 207//207
f 194//194 207//207 203//203
f 205//205 208//208 185//185
f 185//185 208//208 209//209
f 185//185 209//209 183//183
f 184//184 210//210 185//185
f 185//185 210//210 211//211
f 185//185 211//211 212//212
f 213//213 214//214 181//181
f 181//181 214//214 215//215
f 181//181 215//215 216//216
f 216//216 217//217 181//181
f 181//181 217//217 218//218
f 181//181 218//218 179//179
f 212//212 219//219 185//185
f 185//185 219//219 220//220
f 185//185 220//220 221//221
f 201//201 222//222 194//194
f 194//194 222//222 223//223
f 194//194 223//223 181//181
f 181//181 223//223 224//224
f 181//181 224//224 213//213
f 10//10 178//178 12//12
f 12//12 178//178 225//225
f 12//12 225//225 14//14
f 14//14 225//225 185//185
f 14//14 185//185 226//226
f 226//226 185//185 221//221
f 226//226 221//221 190//190
f 190//190 221//221 227//227
f 190//190 227//227 191//191
f 186//186 188//188 15//15
f 15//15 188//188 228//228
f 15//15 228//228 16//16
f 16//16 228//228 229//229
f 16//16 229//229 230//230
f 231//231 232//232 233//233
f 230//230 234//234 16//16
f 16//16 234//234 231//231
f 16//16 231//231 235//235
f 235//235 231//231 233//233
f 236//236 237//237 238//238
f 239//239 240//240 188//188
f 241//241 242//242 188//188
f 188//188 242//242 243//243
f 188//188 243//243 239//239
f 240//240 244//244 188//188
f 188//188 244//244 245//245
f 188//188 245//245 246//246
f 246//246 247//247 188//188
f 188//188 247//247 248//248
f 188//188 248//248 228//228
f 228//228 248//248 249//249
f 228//228 249//249 250//250
f 236//236 238//238 251//251
f 250//250 252//252 228//228
f 228//228 252//252 253//253
f 228//228 253//253 254//254
f 255//255 256//256 257//257
f 258//258 259//259 260//260
f 260//260 259//259 255//255
f 260//260 255//255 261//261
f 261//261 255//255 257//257
f 237//237 262//262 238//238
f 238//238 262//262 263//263
f 238//238 263//263 188//188
f 188//188 263//263 264//264
f 188//188 264//264 241//241
f 254//254 265//265 228//228
f 228//228 265//265 266//266
f 228//228 266//266 267//267
f 267//267 266//266 268//268
f 267//267 268//268 269//269
f 269//269 268//268 270//270
f 269//269 270//270 271//271
f 271//271 270//270 272//272
f 271//271 272//272 273//273
f 273//273 272//272 274//274
f 273//273 274//274 275//275
f 275//275 274//274 276//276
f 275//275 276//276 277//277
f 277//277 276//276 278//278
f 277//277 278//278 279//279
f 279//279 278//278 280//280
f 279//279 280//280 281//281
f 281//281 280//280 282//282
f 281//281 282//282 283//283
f 283//283 282//282 284//284
f 283//283 284//284 285//285
f 285//285 284//284 286//286
f 285//285 286//286 256//256
f 256//256 286//286 287//287
f 256//256 287//287 257//257
f 258//258 251//251 259//259
f 259//259 251//251 238//238
f 259//259 238//238 288//288
f 288//288 238//238 289//289
f 290//290 291//291 292//292
f 291//291 293//293 294//294
f 293//293 291//291 20//20
f 20//20 291//291 295//295
f 20//20 295//295 22//22
f 294//294 296//296 291//291
f 291//291 296//296 297//297
f 291//291 297//297 292//292
f 22//22 295//295 24//24
f 24//24 295//295 92//92
f 24//24 92//92 102//102
f 92//92 94//94 96//96
f 96//96 98//98 92//92
f 92//92 98//98 100//100
f 92//92 100//100 102//102
f 298//298 299//299 295//295
f 300//300 301//301 302//302
f 303//303 304//304 78//78
f 78//78 304//304 305//305
f 78//78 305//305 306//306
f 306//306 307//307 78//78
f 78//78 307//307 308//308
f 78//78 308//308 302//302
f 302//302 308//308 309//309
f 302//302 309//309 310//310
f 310//310 311//311 302//302
f 302//302 311//311 312//312
f 302//302 312//312 313//313
f 314//314 315//315 295//295
f 295//295 315//315 316//316
f 295//295 316//316 298//298
f 317//317 318//318 92//92
f 92//92 318//318 319//319
f 319//319 320//320 92//92
f 92//92 320//320 321//321
f 92//92 321//321 90//90
f 90//90 321//321 322//322
f 90//90 322//322 88//88
f 88//88 322//322 323//323
f 88//88 323//323 86//86
f 313//313 324//324 302//302
f 302//302 324//324 325//325
f 302//302 325//325 300//300
f 301//301 326//326 295//295
f 295//295 326//326 327//327
f 295//295 327//327 314//314
f 299//299 328//328 295//295
f 295//295 328//328 329//329
f 295//295 329//329 92//92
f 92//92 329//329 330//330
f 92//92 330//330 317//317
f 323//323 331//331 86//86
f 86//86 331//331 332//332
f 86//86 332//332 84//84
f 84//84 332//332 333//333
f 84//84 333//333 82//82
f 82//82 333//333 334//334
f 82//82 334//334 80//80
f 80//80 334//334 335//335
f 80//80 335//335 78//78
f 78//78 335//335 336//336
f 78//78 336//336 303//303
f 68//68 70//70 78//78
f 337//337 338//338 302//302
f 302//302 338//338 4//4
f 302//302 4//4 78//78
f 78//78 4//4 2//2
f 78//78 2//2 68//68
f 72//72 74//74 70//70
f 70//70 74//74 76//76
f 70//70 76//76 78//78
f 103//103 105//105 339//339
f 340//340 341//341 105//105
f 105//105 341//341 342//342
f 342//342 343//343 105//105
f 105//105 343//343 344//344
f 105//105 344//344 339//339
f 345//345 346//346 347//347
f 347//347 346//346 348//348
f 347//347 348//348 349//349
f 347//347 350//350 302//302
f 302//302 350//350 351//351
f 302//302 351//351 352//352
f 352//352 353//353 302//302
f 302//302 353//353 354//354
f 302//302 354//354 355//355
f 356//356 357//357 358//358
f 358//358 357//357 359//359
f 358//358 359//359 360//360
f 360//360 359//359 361//361
f 360//360 361//361 362//362
f 362//362 361//361 363//363
f 362//362 363//363 364//364
f 364//364 363//363 340//340
f 364//364 340//340 365//365
f 365//365 340//340 105//105
f 365//365 105//105 5//5
f 5//5 105//105 150//150
f 5//5 150//150 139//139
f 349//349 366//366 347//347
f 347//347 366//366 367//367
f 347//347 367//367 350//350
f 355//355 368//368 302//302
f 302//302 368//368 369//369
f 302//302 369//369 337//337
f 369//369 370//370 337//337
f 337//337 370//370 371//371
f 337//337 371//371 372//372
f 372//372 371//371 373//373
f 372//372 373//373 374//374
f 374//374 373//373 375//375
f 374//374 375//375 356//356
f 356//356 375//375 376//376
f 356//356 376//376 357//357
f 377//377 378//378 164//164
f 164//164 378//378 379//379
f 161//161 108//108 169//169
f 169//169 108//108 105//105
f 169//169 105//105 164//164
f 164//164 105//105 104//104
f 164//164 104//104 377//377
f 379//379 380//380 164//164
f 164//164 380//380 381//381
f 164//164 381//381 347//347
f 347//347 381//381 382//382
f 347//347 382//382 345//345
f 200//200 185//185 188//188
f 188//188 185//185 290//290
f 188//188 290//290 238//238
f 238//238 290//290 292//292
f 238//238 292//292 289//289
f 383//383 384//384 171//171
f 383//383 171//171 385//385
f 384//384 386//386 171//171
f 171//171 386//386 387//387
f 171//171 387//387 388//388
f 177//177 389//389 390//390
f 225//225 391//391 392//392
f 393//393 394//394 225//225
f 225//225 394//394 395//395
f 225//225 395//395 396//396
f 301//301 295//295 302//302
f 302//302 295//295 291//291
f 302//302 291//291 347//347
f 347//347 291//291 290//290
f 347//347 290//290 164//164
f 164//164 290//290 185//185
f 164//164 185//185 165//165
f 165//165 185//185 225//225
f 165//165 225//225 171//171
f 171//171 225//225 396//396
f 171//171 396//396 385//385
f 62//62 171//171 177//177
f 177//177 171//171 397//397
f 177//177 397//397 389//389
f 390//390 398//398 177//177
f 177//177 398//398 399//399
f 177//177 399//399 400//400
f 400//400 401//401 177//177
f 177//177 401//401 402//402
f 177//177 402//402 403//403
f 388//388 404//404 171//171
f 171//171 404//404 405//405
f 171//171 405//405 397//397
f 403//403 406//406 177//177
f 177//177 406//406 407//407
f 177//177 407//407 178//178
f 178//178 407//407 408//408
f 178//178 408//408 409//409
f 392//392 410//410 225//225
f 225//225 410//410 411//411
f 225//225 411//411 393//393
f 409//409 412//412 178//178
f 178//178 412//412 413//413
f 178//178 413//413 414//414
f 414//414 415//415 178//178
f 178//178 415//415 416//416
f 178//178 416//416 417//417
f 417//417 418//418 178//178
f 178//178 418//418 419//419
f 178//178 419//419 225//225
f 225//225 419//419 420//420
f 225//225 420//420 391//391
f 421//421 422//422 423//423
f 63//63 65//65 424//424
f 39//39 37//37 425//425
f 426//426 427//427 428//428
f 426//426 428//428 3//3
f 73//73 71//71 69//69
f 3//3 428//428 1//1
f 1//1 428//428 77//77
f 1//1 77//77 67//67
f 67//67 77//77 69//69
f 69//69 77//77 75//75
f 69//69 75//75 73//73
f 429//429 430//430 428//428
f 429//429 428//428 431//431
f 432//432 428//428 433//433
f 433//433 428//428 434//434
f 435//435 436//436 437//437
f 430//430 438//438 428//428
f 428//428 438//438 439//439
f 428//428 439//439 434//434
f 440//440 441//441 77//77
f 77//77 441//441 442//442
f 443//443 444//444 435//435
f 435//435 444//444 445//445
f 435//435 445//445 446//446
f 446//446 447//447 435//435
f 435//435 447//447 448//448
f 435//435 448//448 436//436
f 432//432 449//449 428//428
f 428//428 449//449 450//450
f 428//428 450//450 77//77
f 77//77 450//450 451//451
f 77//77 451//451 440//440
f 452//452 91//91 453//453
f 453//453 91//91 454//454
f 452//452 455//455 91//91
f 91//91 455//455 456//456
f 91//91 456//456 457//457
f 442//442 458//458 77//77
f 77//77 458//458 459//459
f 77//77 459//459 79//79
f 79//79 459//459 460//460
f 79//79 460//460 81//81
f 81//81 460//460 461//461
f 81//81 461//461 83//83
f 83//83 461//461 462//462
f 83//83 462//462 85//85
f 85//85 462//462 463//463
f 85//85 463//463 87//87
f 87//87 463//463 464//464
f 87//87 464//464 89//89
f 89//89 464//464 465//465
f 89//89 465//465 91//91
f 91//91 465//465 466//466
f 91//91 466//466 454//454
f 21//21 91//91 435//435
f 435//435 91//91 457//457
f 435//435 457//457 443//443
f 21//21 23//23 91//91
f 91//91 23//23 101//101
f 91//91 101//101 99//99
f 99//99 97//97 91//91
f 91//91 97//97 95//95
f 91//91 95//95 93//93
f 467//467 468//468 469//469
f 469//469 468//468 470//470
f 469//469 470//470 435//435
f 435//435 470//470 19//19
f 435//435 19//19 21//21
f 471//471 472//472 473//473
f 473//473 472//472 474//474
f 473//473 474//474 469//469
f 469//469 474//474 475//475
f 469//469 475//475 467//467
f 476//476 477//477 478//478
f 479//479 480//480 481//481
f 481//481 480//480 482//482
f 479//479 483//483 478//478
f 478//478 483//483 484//484
f 478//478 484//484 485//485
f 485//485 486//486 478//478
f 478//478 486//486 487//487
f 478//478 487//487 476//476
f 488//488 480//480 489//489
f 489//489 480//480 490//490
f 477//477 491//491 478//478
f 478//478 491//491 492//492
f 478//478 492//492 493//493
f 488//488 494//494 480//480
f 480//480 494//494 495//495
f 480//480 495//495 482//482
f 471//471 496//496 497//497
f 497//497 498//498 471//471
f 471//471 498//498 499//499
f 471//471 499//499 472//472
f 493//493 500//500 471//471
f 471//471 500//500 501//501
f 471//471 501//501 496//496
f 502//502 503//503 504//504
f 490//490 480//480 505//505
f 505//505 480//480 506//506
f 505//505 506//506 507//507
f 507//507 506//506 508//508
f 507//507 508//508 509//509
f 509//509 508//508 510//510
f 509//509 510//510 511//511
f 511//511 510//510 512//512
f 511//511 512//512 513//513
f 513//513 512//512 514//514
f 513//513 514//514 515//515
f 515//515 514//514 516//516
f 515//515 516//516 517//517
f 517//517 516//516 518//518
f 517//517 518//518 519//519
f 519//519 518//518 520//520
f 519//519 520//520 521//521
f 497//497 522//522 498//498
f 498//498 522//522 523//523
f 498//498 523//523 503//503
f 503//503 523//523 524//524
f 503//503 524//524 504//504
f 504//504 525//525 502//502
f 502//502 525//525 526//526
f 502//502 526//526 527//527
f 527//527 526//526 521//521
f 527//527 521//521 528//528
f 528//528 521//521 520//520
f 478//478 529//529 530//530
f 479//479 478//478 480//480
f 480//480 478//478 530//530
f 480//480 530//530 531//531
f 532//532 533//533 534//534
f 531//531 535//535 480//480
f 480//480 535//535 536//536
f 480//480 536//536 537//537
f 534//534 538//538 532//532
f 532//532 538//538 480//480
f 532//532 480//480 539//539
f 539//539 480//480 537//537
f 540//540 541//541 542//542
f 542//542 541//541 543//543
f 544//544 545//545 546//546
f 547//547 548//548 549//549
f 550//550 551//551 542//542
f 542//542 551//551 552//552
f 542//542 552//552 540//540
f 547//547 549//549 553//553
f 553//553 549//549 13//13
f 553//553 13//13 541//541
f 541//541 13//13 554//554
f 541//541 554//554 543//543
f 548//548 555//555 549//549
f 549//549 555//555 556//556
f 549//549 556//556 557//557
f 558//558 559//559 560//560
f 560//560 559//559 561//561
f 560//560 561//561 562//562
f 562//562 563//563 560//560
f 560//560 563//563 564//564
f 560//560 564//564 565//565
f 544//544 566//566 545//545
f 545//545 566//566 567//567
f 545//545 567//567 550//550
f 550//550 567//567 568//568
f 550//550 568//568 569//569
f 569//569 570//570 550//550
f 550//550 570//570 571//571
f 550//550 571//571 572//572
f 572//572 573//573 550//550
f 550//550 573//573 574//574
f 550//550 574//574 551//551
f 557//557 575//575 549//549
f 549//549 575//575 576//576
f 549//549 576//576 577//577
f 560//560 578//578 579//579
f 560//560 579//579 478//478
f 478//478 579//579 580//580
f 478//478 580//580 581//581
f 565//565 582//582 560//560
f 560//560 582//582 583//583
f 560//560 583//583 578//578
f 529//529 478//478 584//584
f 584//584 478//478 581//581
f 584//584 581//581 546//546
f 546//546 581//581 585//585
f 546//546 585//585 544//544
f 27//27 425//425 29//29
f 29//29 425//425 31//31
f 27//27 25//25 425//425
f 425//425 25//25 9//9
f 425//425 9//9 549//549
f 549//549 9//9 11//11
f 549//549 11//11 13//13
f 37//37 35//35 425//425
f 425//425 35//35 33//33
f 425//425 33//33 31//31
f 47//47 45//45 586//586
f 586//586 45//45 43//43
f 586//586 43//43 425//425
f 425//425 43//43 41//41
f 425//425 41//41 39//39
f 53//53 51//51 586//586
f 586//586 51//51 49//49
f 586//586 49//49 47//47
f 424//424 65//65 586//586
f 586//586 65//65 61//61
f 586//586 61//61 59//59
f 59//59 57//57 586//586
f 586//586 57//57 55//55
f 586//586 55//55 53//53
f 587//587 588//588 589//589
f 589//589 588//588 590//590
f 590//590 591//591 589//589
f 589//589 591//591 592//592
f 589//589 592//592 593//593
f 422//422 421//421 594//594
f 594//594 421//421 595//595
f 594//594 595//595 596//596
f 597//597 598//598 599//599
f 600//600 601//601 597//597
f 597//597 601//601 602//602
f 597//597 602//602 598//598
f 597//597 603//603 604//604
f 604//604 605//605 597//597
f 597//597 605//605 606//606
f 597//597 606//606 607//607
f 607//607 608//608 597//597
f 597//597 608//608 609//609
f 597//597 609//609 600//600
f 603//603 610//610 611//611
f 612//612 613//613 614//614
f 614//614 613//613 615//615
f 614//614 615//615 597//597
f 597//597 615//615 616//616
f 616//616 617//617 597//597
f 597//597 617//617 618//618
f 597//597 618//618 619//619
f 619//619 620//620 597//597
f 597//597 620//620 621//621
f 597//597 621//621 622//622
f 611//611 623//623 603//603
f 603//603 623//623 624//624
f 603//603 624//624 625//625
f 625//625 624//624 626//626
f 625//625 626//626 627//627
f 627//627 626//626 628//628
f 627//627 628//628 629//629
f 629//629 628//628 630//630
f 629//629 630//630 631//631
f 631//631 630//630 632//632
f 631//631 632//632 633//633
f 633//633 632//632 634//634
f 633//633 634//634 635//635
f 635//635 634//634 636//636
f 637//637 638//638 639//639
f 639//639 638//638 640//640
f 639//639 640//640 641//641
f 642//642 643//643 614//614
f 622//622 644//644 597//597
f 597//597 644//644 645//645
f 597//597 645//645 603//603
f 603//603 645//645 646//646
f 603//603 646//646 610//610
f 636//636 647//647 635//635
f 635//635 647//647 648//648
f 635//635 648//648 639//639
f 639//639 648//648 649//649
f 639//639 649//649 637//637
f 643//643 650//650 614//614
f 614//614 650//650 651//651
f 614//614 651//651 612//612
f 652//652 653//653 614//614
f 614//614 653//653 654//654
f 614//614 654//654 642//642
f 655//655 656//656 614//614
f 614//614 656//656 657//657
f 614//614 657//657 658//658
f 659//659 660//660 428//428
f 661//661 662//662 663//663
f 658//658 664//664 614//614
f 614//614 664//664 665//665
f 614//614 665//665 666//666
f 641//641 652//652 639//639
f 639//639 652//652 614//614
f 639//639 614//614 667//667
f 667//667 614//614 666//666
f 667//667 666//666 668//668
f 669//669 670//670 671//671
f 663//663 662//662 672//672
f 672//672 662//662 673//673
f 672//672 673//673 674//674
f 674//674 673//673 675//675
f 674//674 675//675 668//668
f 668//668 675//675 676//676
f 668//668 676//676 667//667
f 663//663 677//677 661//661
f 661//661 677//677 678//678
f 661//661 678//678 679//679
f 679//679 678//678 680//680
f 679//679 680//680 681//681
f 681//681 680//680 682//682
f 681//681 682//682 427//427
f 683//683 684//684 428//428
f 428//428 684//684 685//685
f 428//428 685//685 659//659
f 670//670 686//686 671//671
f 671//671 686//686 687//687
f 671//671 687//687 688//688
f 682//682 689//689 427//427
f 427//427 689//689 690//690
f 427//427 690//690 428//428
f 428//428 690//690 691//691
f 428//428 691//691 683//683
f 660//660 692//692 428//428
f 428//428 692//692 693//693
f 428//428 693//693 671//671
f 671//671 693//693 694//694
f 671//671 694//694 669//669
f 594//594 695//695 696//696
f 688//688 697//697 671//671
f 671//671 697//697 698//698
f 671//671 698//698 594//594
f 594//594 698//698 699//699
f 594//594 699//699 695//695
f 599//599 700//700 597//597
f 597//597 700//700 423//423
f 597//597 423//423 614//614
f 614//614 423//423 422//422
f 614//614 422//422 655//655
f 655//655 422//422 594//594
f 655//655 594//594 701//701
f 701//701 594//594 696//696
f 594//594 473//473 671//671
f 671//671 473//473 469//469
f 671//671 469//469 428//428
f 428//428 469//469 435//435
f 428//428 435//435 431//431
f 431//431 435//435 437//437
f 589//589 549//549 560//560
f 560//560 549//549 577//577
f 560//560 577//577 558//558
f 586//586 702//702 703//703
f 704//704 705//705 424//424
f 424//424 705//705 706//706
f 424//424 706//706 707//707
f 593//593 63//63 589//589
f 589//589 63//63 424//424
f 589//589 424//424 549//549
f 549//549 424//424 707//707
f 549//549 707//707 708//708
f 703//703 709//709 586//586
f 586//586 709//709 710//710
f 586//586 710//710 711//711
f 711//711 712//712 586//586
f 586//586 712//712 713//713
f 586//586 713//713 714//714
f 715//715 716//716 424//424
f 424//424 716//716 717//717
f 424//424 717//717 704//704
f 714//714 718//718 586//586
f 586//586 718//718 719//719
f 586//586 719//719 424//424
f 424//424 719//719 720//720
f 424//424 720//720 715//715
f 708//708 721//721 549//549
f 549//549 721//721 722//722
f 549//549 722//722 723//723
f 723//723 724//724 549//549
f 549//549 724//724 725//725
f 549//549 725//725 726//726
f 727//727 425//425 728//728
f 728//728 425//425 549//549
f 728//728 549//549 729//729
f 729//729 549//549 726//726
f 727//727 730//730 425//425
f 425//425 730//730 731//731
f 425//425 731//731 732//732
f 733//733 734//734 425//425
f 425//425 734//734 735//735
f 425//425 735//735 586//586
f 586//586 735//735 736//736
f 586//586 736//736 702//702
f 732//732 737//737 425//425
f 425//425 737//737 738//738
f 425//425 738//738 733//733
f 493//493 471//471 478//478
f 478//478 471//471 473//473
f 478//478 473//473 560//560
f 560//560 473//473 594//594
f 560//560 594//594 589//589
f 589//589 594//594 596//596
f 589//589 596//596 587//587
f 535//535 16//16 235//235
f 535//535 235//235 536//536
f 536//536 235//235 233//233
f 536//536 233//233 537//537
f 537//537 233//233 232//232
f 537//537 232//232 539//539
f 539//539 232//232 231//231
f 539//539 231//231 532//532
f 532//532 231//231 234//234
f 532//532 234//234 533//533
f 533//533 234//234 230//230
f 533//533 230//230 534//534
f 534//534 230//230 229//229
f 534//534 229//229 538//538
f 538//538 229//229 228//228
f 538//538 228//228 480//480
f 480//480 228//228 267//267
f 480//480 267//267 506//506
f 506//506 267//267 269//269
f 506//506 269//269 508//508
f 508//508 269//269 271//271
f 508//508 271//271 510//510
f 510//510 271//271 273//273
f 510//510 273//273 512//512
f 512//512 273//273 275//275
f 512//512 275//275 514//514
f 514//514 275//275 277//277
f 514//514 277//277 516//516
f 516//516 277//277 279//279
f 516//516 279//279 518//518
f 518//518 279//279 281//281
f 518//518 281//281 520//520
f 520//520 281//281 283//283
f 520//520 283//283 528//528
f 528//528 283//283 285//285
f 528//528 285//285 527//527
f 527//527 285//285 256//256
f 527//527 256//256 502//502
f 739//739 256//256 740//740
f 740//740 256//256 255//255
f 741//741 161//161 742//742
f 742//742 161//161 170//170
f 635//635 6//6 124//124
f 635//635 124//124 633//633
f 633//633 124//124 126//126
f 633//633 126//126 631//631
f 631//631 126//126 128//128
f 631//631 128//128 629//629
f 629//629 128//128 130//130
f 629//629 130//130 627//627
f 627//627 130//130 132//132
f 627//627 132//132 625//625
f 625//625 132//132 112//112
f 625//625 112//112 603//603
f 603//603 112//112 153//153
f 603//603 153//153 604//604
f 604//604 153//153 152//152
f 604//604 152//152 605//605
f 605//605 152//152 151//151
f 605//605 151//151 606//606
f 606//606 151//151 156//156
f 606//606 156//156 607//607
f 607//607 156//156 155//155
f 607//607 155//155 608//608
f 608//608 155//155 154//154
f 608//608 154//154 609//609
f 609//609 154//154 160//160
f 609//609 160//160 600//600
f 600//600 160//160 159//159
f 600//600 159//159 601//601
f 601//601 159//159 158//158
f 601//601 158//158 602//602
f 602//602 158//158 157//157
f 602//602 157//157 598//598
f 598//598 157//157 163//163
f 598//598 163//163 599//599
f 599//599 163//163 162//162
f 599//599 162//162 700//700
f 700//700 162//162 161//161
f 700//700 161//161 423//423
f 15//15 531//531 186//186
f 186//186 531//531 530//530
f 186//186 530//530 187//187
f 187//187 530//530 529//529
f 187//187 529//529 189//189
f 189//189 529//529 584//584
f 189//189 584//584 182//182
f 182//182 584//584 546//546
f 182//182 546//546 181//181
f 181//181 546//546 545//545
f 181//181 545//545 194//194
f 194//194 545//545 550//550
f 194//194 550//550 192//192
f 192//192 550//550 542//542
f 192//192 542//542 190//190
f 190//190 542//542 543//543
f 190//190 543//543 226//226
f 226//226 543//543 554//554
f 226//226 554//554 14//14
f 14//14 554//554 13//13
f 20//20 19//19 293//293
f 293//293 19//19 470//470
f 293//293 470//470 294//294
f 294//294 470//470 468//468
f 294//294 468//468 296//296
f 296//296 468//468 467//467
f 296//296 467//467 297//297
f 297//297 467//467 475//475
f 297//297 475//475 292//292
f 292//292 475//475 474//474
f 292//292 474//474 289//289
f 289//289 474//474 472//472
f 289//289 472//472 288//288
f 288//288 472//472 499//499
f 288//288 499//499 259//259
f 259//259 499//499 498//498
f 259//259 498//498 255//255
f 255//255 498//498 503//503
f 5//5 639//639 365//365
f 365//365 639//639 667//667
f 365//365 667//667 364//364
f 364//364 667//667 676//676
f 364//364 676//676 362//362
f 362//362 676//676 675//675
f 362//362 675//675 360//360
f 360//360 675//675 673//673
f 360//360 673//673 358//358
f 358//358 673//673 662//662
f 358//358 662//662 356//356
f 356//356 662//662 661//661
f 356//356 661//661 374//374
f 374//374 661//661 679//679
f 374//374 679//679 372//372
f 372//372 679//679 681//681
f 372//372 681//681 337//337
f 337//337 681//681 427//427
f 337//337 427//427 338//338
f 338//338 427//427 426//426
f 338//338 426//426 4//4
f 4//4 426//426 3//3
f 64//64 63//63 172//172
f 172//172 63//63 593//593
f 172//172 593//593 173//173
f 173//173 593//593 592//592
f 173//173 592//592 174//174
f 174//174 592//592 591//591
f 174//174 591//591 175//175
f 175//175 591//591 590//590
f 175//175 590//590 176//176
f 176//176 590//590 588//588
f 176//176 588//588 166//166
f 166//166 588//588 587//587
f 166//166 587//587 167//167
f 167//167 587//587 596//596
f 167//167 596//596 168//168
f 168//168 596//596 595//595
f 168//168 595//595 170//170
f 170//170 595//595 421//421
f 690//690 370//370 691//691
f 691//691 370//370 369//369
f 691//691 369//369 683//683
f 683//683 369//369 368//368
f 683//683 368//368 684//684
f 684//684 368//368 355//355
f 684//684 355//355 685//685
f 685//685 355//355 354//354
f 685//685 354//354 659//659
f 659//659 354//354 353//353
f 659//659 353//353 660//660
f 660//660 353//353 352//352
f 660//660 352//352 692//692
f 692//692 352//352 351//351
f 692//692 351//351 693//693
f 693//693 351//351 350//350
f 693//693 350//350 694//694
f 694//694 350//350 367//367
f 694//694 367//367 669//669
f 669//669 367//367 366//366
f 669//669 366//366 670//670
f 670//670 366//366 349//349
f 670//670 349//349 686//686
f 686//686 349//349 348//348
f 686//686 348//348 687//687
f 687//687 348//348 346//346
f 687//687 346//346 688//688
f 688//688 346//346 345//345
f 688//688 345//345 697//697
f 697//697 345//345 382//382
f 697//697 382//382 698//698
f 698//698 382//382 381//381
f 698//698 381//381 699//699
f 699//699 381//381 380//380
f 699//699 380//380 695//695
f 695//695 380//380 379//379
f 695//695 379//379 696//696
f 696//696 379//379 378//378
f 696//696 378//378 701//701
f 701//701 378//378 377//377
f 701//701 377//377 655//655
f 655//655 377//377 104//104
f 655//655 104//104 656//656
f 656//656 104//104 103//103
f 656//656 103//103 657//657
f 657//657 103//103 339//339
f 657//657 339//339 658//658
f 658//658 339//339 344//344
f 658//658 344//344 664//664
f 664//664 344//344 343//343
f 664//664 343//343 665//665
f 665//665 343//343 342//342
f 665//665 342//342 666//666
f 666//666 342//342 341//341
f 666//666 341//341 668//668
f 668//668 341//341 340//340
f 668//668 340//340 674//674
f 674//674 340//340 363//363
f 674//674 363//363 672//672
f 672//672 363//363 361//361
f 672//672 361//361 663//663
f 663//663 361//361 359//359
f 663//663 359//359 677//677
f 677//677 359//359 357//357
f 677//677 357//357 678//678
f 678//678 357//357 376//376
f 678//678 376//376 680//680
f 680//680 376//376 375//375
f 680//680 375//375 682//682
f 682//682 375//375 373//373
f 682//682 373//373 689//689
f 689//689 373//373 371//371
f 689//689 371//371 690//690
f 690//690 371//371 370//370
f 578//578 204//204 579//579
f 579//579 204//204 200//200
f 579//579 200//200 580//580
f 580//580 200//200 199//199
f 580//580 199//199 581//581
f 581//581 199//199 198//198
f 581//581 198//198 585//585
f 585//585 198//198 197//197
f 585//585 197//197 544//544
f 544//544 197//197 180//180
f 544//544 180//180 566//566
f 566//566 180//180 179//179
f 566//566 179//179 567//567
f 567//567 179//179 218//218
f 567//567 218//218 568//568
f 568//568 218//218 217//217
f 568//568 217//217 569//569
f 569//569 217//217 216//216
f 569//569 216//216 570//570
f 570//570 216//216 215//215
f 570//570 215//215 571//571
f 571//571 215//215 214//214
f 571//571 214//214 572//572
f 572//572 214//214 213//213
f 572//572 213//213 573//573
f 573//573 213//213 224//224
f 573//573 224//224 574//574
f 574//574 224//224 223//223
f 574//574 223//223 551//551
f 551//551 223//223 222//222
f 551//551 222//222 552//552
f 552//552 222//222 201//201
f 552//552 201//201 540//540
f 540//540 201//201 202//202
f 540//540 202//202 541//541
f 541//541 202//202 203//203
f 541//541 203//203 553//553
f 553//553 203//203 207//207
f 553//553 207//207 547//547
f 547//547 207//207 206//206
f 547//547 206//206 548//548
f 548//548 206//206 196//196
f 548//548 196//196 555//555
f 555//555 196//196 195//195
f 555//555 195//195 556//556
f 556//556 195//195 193//193
f 556//556 193//193 557//557
f 557//557 193//193 191//191
f 557//557 191//191 575//575
f 575//575 191//191 227//227
f 575//575 227//227 576//576
f 576//576 227//227 221//221
f 576//576 221//221 577//577
f 577//577 221//221 220//220
f 577//577 220//220 558//558
f 558//558 220//220 219//219
f 558//558 219//219 559//559
f 559//559 219//219 212//212
f 559//559 212//212 561//561
f 561//561 212//212 211//211
f 561//561 211//211 562//562
f 562//562 211//211 210//210
f 562//562 210//210 563//563
f 563//563 210//210 184//184
f 563//563 184//184 564//564
f 564//564 184//184 183//183
f 564//564 183//183 565//565
f 565//565 183//183 209//209
f 565//565 209//209 582//582
f 582//582 209//209 208//208
f 582//582 208//208 583//583
f 583//583 208//208 205//205
f 583//583 205//205 578//578
f 578//578 205//205 204//204
f 383//383 385//385 707//707
f 707//707 385//385 396//396
f 707//707 396//396 708//708
f 708//708 396//396 395//395
f 708//708 395//395 721//721
f 721//721 395//395 394//394
f 721//721 394//394 722//722
f 722//722 394//394 393//393
f 722//722 393//393 723//723
f 723//723 393//393 411//411
f 723//723 411//411 724//724
f 724//724 411//411 410//410
f 724//724 410//410 725//725
f 725//725 410//410 392//392
f 725//725 392//392 726//726
f 726//726 392//392 391//391
f 726//726 391//391 729//729
f 729//729 391//391 420//420
f 729//729 420//420 728//728
f 728//728 420//420 419//419
f 728//728 419//419 727//727
f 727//727 419//419 418//418
f 727//727 418//418 730//730
f 730//730 418//418 417//417
f 730//730 417//417 731//731
f 731//731 417//417 416//416
f 731//731 416//416 732//732
f 732//732 416//416 415//415
f 732//732 415//415 737//737
f 737//737 415//415 414//414
f 737//737 414//414 738//738
f 738//738 414//414 413//413
f 738//738 413//413 733//733
f 733//733 413//413 412//412
f 733//733 412//412 734//734
f 734//734 412//412 409//409
f 734//734 409//409 735//735
f 735//735 409//409 408//408
f 735//735 408//408 736//736
f 736//736 408//408 407//407
f 736//736 407//407 702//702
f 702//702 407//407 406//406
f 702//702 406//406 703//703
f 703//703 406//406 403//403
f 703//703 403//403 709//709
f 709//709 403//403 402//402
f 709//709 402//402 710//710
f 710//710 402//402 401//401
f 710//710 401//401 711//711
f 711//711 401//401 400//400
f 711//711 400//400 712//712
f 712//712 400//400 399//399
f 712//712 399//399 713//713
f 713//713 399//399 398//398
f 713//713 398//398 714//714
f 714//714 398//398 390//390
f 714//714 390//390 718//718
f 718//718 390//390 389//389
f 718//718 389//389 719//719
f 719//719 389//389 397//397
f 719//719 397//397 720//720
f 720//720 397//397 405//405
f 720//720 405//405 715//715
f 715//715 405//405 404//404
f 715//715 404//404 716//716
f 716//716 404//404 388//388
f 716//716 388//388 717//717
f 717//717 388//388 387//387
f 717//717 387//387 704//704
f 704//704 387//387 386//386
f 704//704 386//386 705//705
f 705//705 386//386 384//384
f 705//705 384//384 706//706
f 706//706 384//384 383//383
f 706//706 383//383 707//707
f 260//260 261//261 504//504
f 504//504 261//261 257//257
f 504//504 257//257 525//525
f 525//525 257//257 287//287
f 525//525 287//287 526//526
f 526//526 287//287 286//286
f 526//526 286//286 521//521
f 521//521 286//286 284//284
f 521//521 284//284 519//519
f 519//519 284//284 282//282
f 519//519 282//282 517//517
f 517//517 282//282 280//280
f 517//517 280//280 515//515
f 515//515 280//280 278//278
f 515//515 278//278 513//513
f 513//513 278//278 276//276
f 513//513 276//276 511//511
f 511//511 276//276 274//274
f 511//511 274//274 509//509
f 509//509 274//274 272//272
f 509//509 272//272 507//507
f 507//507 272//272 270//270
f 507//507 270//270 505//505
f 505//505 270//270 268//268
f 505//505 268//268 490//490
f 490//490 268//268 266//266
f 490//490 266//266 489//489
f 489//489 266//266 265//265
f 489//489 265//265 488//488
f 488//488 265//265 254//254
f 488//488 254//254 494//494
f 494//494 254//254 253//253
f 494//494 253//253 495//495
f 495//495 253//253 252//252
f 495//495 252//252 482//482
f 482//482 252//252 250//250
f 482//482 250//250 481//481
f 481//481 250//250 249//249
f 481//481 249//249 479//479
f 479//479 249//249 248//248
f 479//479 248//248 483//483
f 483//483 248//248 247//247
f 483//483 247//247 484//484
f 484//484 247//247 246//246
f 484//484 246//246 485//485
f 485//485 246//246 245//245
f 485//485 245//245 486//486
f 486//486 245//245 244//244
f 486//486 244//244 487//487
f 487//487 244//244 240//240
f 487//487 240//240 476//476
f 476//476 240//240 239//239
f 476//476 239//239 477//477
f 477//477 239//239 243//243
f 477//477 243//243 491//491
f 491//491 243//243 242//242
f 491//491 242//242 492//492
f 492//492 242//242 241//241
f 492//492 241//241 493//493
f 493//493 241//241 264//264
f 493//493 264//264 500//500
f 500//500 264//264 263//263
f 500//500 263//263 501//501
f 501//501 263//263 262//262
f 501//501 262//262 496//496
f 496//496 262//262 237//237
f 496//496 237//237 497//497
f 497//497 237//237 236//236
f 497//497 236//236 522//522
f 522//522 236//236 251//251
f 522//522 251//251 523//523
f 523//523 251//251 258//258
f 523//523 258//258 524//524
f 524//524 258//258 260//260
f 524//524 260//260 504//504
f 129//129 127//127 632//632
f 632//632 127//127 125//125
f 632//632 125//125 634//634
f 634//634 125//125 123//123
f 634//634 123//123 636//636
f 636//636 123//123 122//122
f 636//636 122//122 647//647
f 647//647 122//122 110//110
f 647//647 110//110 648//648
f 648//648 110//110 109//109
f 648//648 109//109 649//649
f 649//649 109//109 120//120
f 649//649 120//120 637//637
f 637//637 120//120 121//121
f 637//637 121//121 638//638
f 638//638 121//121 141//141
f 638//638 141//141 640//640
f 640//640 141//141 140//140
f 640//640 140//140 641//641
f 641//641 140//140 139//139
f 641//641 139//139 652//652
f 652//652 139//139 150//150
f 652//652 150//150 653//653
f 653//653 150//150 149//149
f 653//653 149//149 654//654
f 654//654 149//149 148//148
f 654//654 148//148 642//642
f 642//642 148//148 147//147
f 642//642 147//147 643//643
f 643//643 147//147 146//146
f 643//643 146//146 650//650
f 650//650 146//146 145//145
f 650//650 145//145 651//651
f 651//651 145//145 144//144
f 651//651 144//144 612//612
f 612//612 144//144 143//143
f 612//612 143//143 613//613
f 613//613 143//143 142//142
f 613//613 142//142 615//615
f 615//615 142//142 138//138
f 615//615 138//138 616//616
f 616//616 138//138 137//137
f 616//616 137//137 617//617
f 617//617 137//137 119//119
f 617//617 119//119 618//618
f 618//618 119//119 118//118
f 618//618 118//118 619//619
f 619//619 118//118 117//117
f 619//619 117//117 620//620
f 620//620 117//117 116//116
f 620//620 116//116 621//621
f 621//621 116//116 115//115
f 621//621 115//115 622//622
f 622//622 115//115 136//136
f 622//622 136//136 644//644
f 644//644 136//136 135//135
f 644//644 135//135 645//645
f 645//645 135//135 107//107
f 645//645 107//107 646//646
f 646//646 107//107 106//106
f 646//646 106//106 610//610
f 610//610 106//106 111//111
f 610//610 111//111 611//611
f 611//611 111//111 113//113
f 611//611 113//113 623//623
f 623//623 113//113 114//114
f 623//623 114//114 624//624
f 624//624 114//114 134//134
f 624//624 134//134 626//626
f 626//626 134//134 133//133
f 626//626 133//133 628//628
f 628//628 133//133 131//131
f 628//628 131//131 630//630
f 630//630 131//131 129//129
f 630//630 129//129 632//632
f 334//334 333//333 462//462
f 462//462 333//333 332//332
f 462//462 332//332 463//463
f 463//463 332//332 331//331
f 463//463 331//331 464//464
f 464//464 331//331 323//323
f 464//464 323//323 465//465
f 465//465 323//323 322//322
f 465//465 322//322 466//466
f 466//466 322//322 321//321
f 466//466 321//321 454//454
f 454//454 321//321 320//320
f 454//454 320//320 453//453
f 453//453 320//320 319//319
f 453//453 319//319 452//452
f 452//452 319//319 318//318
f 452//452 318//318 455//455
f 455//455 318//318 317//317
f 455//455 317//317 456//456
f 456//456 317//317 330//330
f 456//456 330//330 457//457
f 457//457 330//330 329//329
f 457//457 329//329 443//443
f 443//443 329//329 328//328
f 443//443 328//328 444//444
f 444//444 328//328 299//299
f 444//444 299//299 445//445
f 445//445 299//299 298//298
f 445//445 298//298 446//446
f 446//446 298//298 316//316
f 446//446 316//316 447//447
f 447//447 316//316 315//315
f 447//447 315//315 448//448
f 448//448 315//315 314//314
f 448//448 314//314 436//436
f 436//436 314//314 327//327
f 436//436 327//327 437//437
f 437//437 327//327 326//326
f 437//437 326//326 431//431
f 431//431 326//326 301//301
f 431//431 301//301 429//429
f 429//429 301//301 300//300
f 429//429 300//300 430//430
f 430//430 300//300 325//325
f 430//430 325//325 438//438
f 438//438 325//325 324//324
f 438//438 324//324 439//439
f 439//439 324//324 313//313
f 439//439 313//313 434//434
f 434//434 313//313 312//312
f 434//434 312//312 433//433
f 433//433 312//312 311//311
f 433//433 311//311 432//432
f 432//432 311//311 310//310
f 432//432 310//310 449//449
f 449//449 310//310 309//309
f 449//449 309//309 450//450
f 450//450 309//309 308//308
f 450//450 308//308 451//451
f 451//451 308//308 307//307
f 451//451 307//307 440//440
f 440//440 307//307 306//306
f 440//440 306//306 441//441
f 441//441 306//306 305//305
f 441//441 305//305 442//442
f 442//442 305//305 304//304
f 442//442 304//304 458//458
f 458//458 304//304 303//303
f 458//458 303//303 459//459
f 459//459 303//303 336//336
f 459//459 336//336 460//460
f 460//460 336//336 335//335
f 460//460 335//335 461//461
f 461//461 335//335 334//334
f 461//461 334//334 462//462
# 1488 faces, 0 coords texture

# End of File
